<svg width="40" height="40" viewBox="0 0 40 40" fill="none" xmlns="http://www.w3.org/2000/svg">
<g clip-path="url(#clip0_7_344)">
<path fill-rule="evenodd" clip-rule="evenodd" d="M40 7.27939C38.5303 7.9487 36.9478 8.40133 35.2879 8.60357C36.983 7.56348 38.2837 5.91427 38.8965 3.94967C37.3094 4.91271 35.5556 5.61332 33.682 5.9889C32.1888 4.35414 30.0546 3.33331 27.6927 3.33331C23.1637 3.33331 19.4893 7.10122 19.4893 11.7479C19.4893 12.4076 19.5598 13.048 19.7006 13.6644C12.8802 13.3129 6.83453 9.96627 2.78453 4.86936C2.07783 6.11651 1.67399 7.56348 1.67399 9.10435C1.67399 12.0224 3.12262 14.5985 5.32488 16.1081C3.98193 16.0672 2.71409 15.6843 1.60591 15.0584V15.1619C1.60591 19.2404 4.43505 22.6423 8.19158 23.4128C7.50366 23.6102 6.77819 23.7089 6.02923 23.7089C5.50097 23.7089 4.98444 23.6583 4.48435 23.5596C5.52914 26.9014 8.55783 29.3355 12.15 29.4005C9.34201 31.6588 5.80148 33.0047 1.95808 33.0047C1.296 33.0047 0.640957 32.9661 0 32.8891C3.63209 35.2726 7.94741 36.6666 12.5797 36.6666C27.6762 36.6666 35.9289 23.8461 35.9289 12.7254C35.9289 12.3594 35.9218 11.9935 35.9077 11.6347C37.5113 10.4478 38.9036 8.96712 40 7.27939Z" fill="#00AAEC"/>
</g>
<defs>
<clipPath id="clip0_7_344">
<rect width="40" height="40" fill="white"/>
</clipPath>
</defs>
</svg>
