<svg width="40" height="40" viewBox="0 0 40 40" fill="none" xmlns="http://www.w3.org/2000/svg">
<path d="M20.38 0H20.4842L26.7292 3.05917C26.6503 3.10306 26.5722 3.09556 26.495 3.03667C26.4906 3.03333 26.4855 3.03106 26.4801 3.03005C26.4747 3.02905 26.4692 3.02932 26.4639 3.03087C26.4586 3.03241 26.4538 3.03517 26.4498 3.03893C26.4458 3.04269 26.4427 3.04734 26.4408 3.0525L26.4325 3.075C26.43 3.08179 26.4255 3.08763 26.4195 3.09167C26.4135 3.09572 26.4064 3.09776 26.3992 3.0975C22.4553 3.08472 18.5114 3.08333 14.5675 3.09333C14.4842 3.09333 14.42 3.04944 14.375 2.96167L20.38 0Z" fill="#02BCDD"/>
<path d="M14.375 2.96167C14.42 3.04944 14.4842 3.09333 14.5675 3.09333C18.5114 3.08333 22.4553 3.08472 26.3992 3.0975C26.4064 3.09776 26.4135 3.09572 26.4195 3.09167C26.4255 3.08763 26.43 3.08179 26.4325 3.075L26.4408 3.0525C26.4427 3.04734 26.4458 3.04269 26.4498 3.03893C26.4538 3.03517 26.4586 3.03241 26.4639 3.03087C26.4692 3.02932 26.4747 3.02905 26.4801 3.03005C26.4855 3.03106 26.4906 3.03333 26.495 3.03667C26.5722 3.09556 26.6503 3.10306 26.7292 3.05917L28.2025 3.7725C28.2292 3.78528 28.2294 3.79806 28.2033 3.81083L22.415 6.6575C22.4043 6.66266 22.3927 6.66534 22.3808 6.66534C22.369 6.66534 22.3573 6.66266 22.3467 6.6575L20.4833 5.74333C20.4709 5.73711 20.4573 5.73387 20.4436 5.73387C20.4298 5.73387 20.4163 5.73711 20.4042 5.74333L18.535 6.65917C18.5207 6.66594 18.5051 6.66945 18.4893 6.66945C18.4736 6.66945 18.4582 6.66594 18.4442 6.65917L12.7317 3.84917C12.6772 3.82194 12.6772 3.795 12.7317 3.76833L14.375 2.96167Z" fill="#02BCDD"/>
<path d="M20.7292 13.2117L20.6758 13.1242C20.6692 13.1133 20.6599 13.1042 20.6486 13.098C20.6374 13.0917 20.6247 13.0884 20.6117 13.0883C17.9544 13.0811 15.2969 13.0806 12.6392 13.0867C12.5767 13.0867 12.5558 13.1142 12.5708 13.1733C12.5719 13.1782 12.572 13.1832 12.5711 13.1881C12.5701 13.193 12.5681 13.1976 12.5653 13.2016C12.5625 13.2056 12.5588 13.209 12.5546 13.2114C12.5504 13.2139 12.5457 13.2154 12.5408 13.2158L12.4375 13.2258L8.81583 11.4583C6.97806 10.5428 5.13667 9.63445 3.29167 8.73333C3.23444 8.70556 3.19556 8.67194 3.175 8.6325C3.15056 8.58472 3.13833 8.53195 3.13833 8.47417L8.73667 5.72417C8.75579 5.71459 8.77695 5.7096 8.79849 5.7096C8.82003 5.7096 8.84137 5.71459 8.86083 5.72417L22.3567 12.355C22.3983 12.375 22.3983 12.3953 22.3567 12.4158L20.7292 13.2117Z" fill="#02BCDD"/>
<path d="M36.1283 7.66667L36.0967 7.72C36.0925 7.727 36.0911 7.73526 36.0926 7.74324C36.0942 7.75122 36.0986 7.75837 36.105 7.76333C36.1339 7.78556 36.1589 7.81528 36.18 7.8525C36.1843 7.8599 36.1865 7.86829 36.1865 7.87683C36.1864 7.88537 36.1842 7.89375 36.1798 7.90111C36.1755 7.90848 36.1693 7.91457 36.1619 7.91877C36.1545 7.92296 36.146 7.92511 36.1375 7.925C33.4525 7.92111 30.825 7.9175 28.255 7.91417C28.1872 7.91417 28.1397 7.88 28.1125 7.81167C28.1109 7.80743 28.1083 7.8036 28.105 7.80045C28.1018 7.79729 28.0978 7.79488 28.0935 7.79338C28.0891 7.79188 28.0845 7.79132 28.0799 7.79174C28.0752 7.79217 28.0707 7.79356 28.0667 7.79583C28.0183 7.82306 27.9753 7.81361 27.9375 7.7675L32.0875 5.72083C32.1002 5.71458 32.1142 5.71133 32.1283 5.71133C32.1425 5.71133 32.1565 5.71458 32.1692 5.72083L36.1283 7.66667Z" fill="#02BCDD"/>
<path d="M36.1283 7.66667L37.8575 8.51083C37.869 8.51633 37.8787 8.52496 37.8854 8.53572C37.8922 8.54648 37.8958 8.55894 37.8958 8.57167V14.2408C37.8958 14.2528 37.8925 14.2645 37.8861 14.2747C37.8798 14.2849 37.8707 14.293 37.86 14.2983L17.1492 24.4792C17.1536 24.4486 17.1517 24.4197 17.1433 24.3925C17.1416 24.387 17.1388 24.3819 17.1352 24.3775C17.1315 24.3731 17.127 24.3695 17.122 24.3669C17.1169 24.3643 17.1114 24.3627 17.1058 24.3622C17.1002 24.3617 17.0945 24.3624 17.0892 24.3642C16.9392 24.4125 16.7844 24.4367 16.625 24.4367C13.0444 24.4361 9.46389 24.4372 5.88333 24.44C5.8787 24.44 5.87412 24.4391 5.86986 24.4372C5.8656 24.4354 5.86176 24.4328 5.85856 24.4294C5.85537 24.4261 5.85289 24.4221 5.85127 24.4178C5.84966 24.4134 5.84894 24.4088 5.84917 24.4042C5.85083 24.3775 5.83861 24.3481 5.8125 24.3158C14.4108 20.0864 23.0094 15.8572 31.6083 11.6283C31.7761 11.5461 31.8939 11.4842 31.9617 11.4425C31.9867 11.4269 31.9858 11.4128 31.9592 11.4L26.315 8.625C26.2717 8.60389 26.2717 8.58278 26.315 8.56167L27.9375 7.7675C27.9753 7.81361 28.0183 7.82306 28.0667 7.79583C28.0707 7.79356 28.0752 7.79217 28.0799 7.79174C28.0845 7.79132 28.0891 7.79188 28.0935 7.79338C28.0978 7.79488 28.1018 7.79729 28.105 7.80045C28.1083 7.8036 28.1109 7.80743 28.1125 7.81167C28.1397 7.88 28.1872 7.91417 28.255 7.91417C30.825 7.9175 33.4525 7.92111 36.1375 7.925C36.146 7.92511 36.1545 7.92296 36.1619 7.91877C36.1693 7.91457 36.1755 7.90848 36.1798 7.90111C36.1842 7.89375 36.1864 7.88537 36.1865 7.87683C36.1865 7.86829 36.1843 7.8599 36.18 7.8525C36.1589 7.81528 36.1339 7.78556 36.105 7.76333C36.0986 7.75837 36.0942 7.75122 36.0926 7.74324C36.0911 7.73526 36.0925 7.727 36.0967 7.72L36.1283 7.66667Z" fill="#02BCDD"/>
<path d="M3.13833 8.47417C3.13833 8.53195 3.15056 8.58472 3.175 8.6325C3.19556 8.67194 3.23444 8.70556 3.29167 8.73333C5.13667 9.63445 6.97806 10.5428 8.81583 11.4583L8.80917 18.8958C8.7725 16.9031 8.75917 15.5628 8.76917 14.875C8.76972 14.8278 8.765 14.7928 8.755 14.77C8.73556 14.7272 8.72472 14.7297 8.7225 14.7775C8.71917 14.8436 8.70639 14.9097 8.68417 14.9758C8.68305 14.9786 8.68194 14.9786 8.68083 14.9758L8.59167 14.7183C8.58652 14.7041 8.57711 14.6919 8.56473 14.6832C8.55235 14.6746 8.5376 14.67 8.5225 14.67L3.125 14.6642C3.11401 14.6642 3.10336 14.6602 3.09508 14.6528C3.08679 14.6455 3.08142 14.6353 3.08 14.6242L3 13.995V8.53667L3.13833 8.47417Z" fill="#02BCDD"/>
<path d="M20.7292 13.2117L16.6 15.2317C16.5883 15.2374 16.5755 15.2404 16.5625 15.2404C16.5495 15.2404 16.5367 15.2374 16.525 15.2317L12.4375 13.2258L12.5408 13.2158C12.5457 13.2154 12.5504 13.2139 12.5546 13.2114C12.5588 13.209 12.5625 13.2056 12.5653 13.2016C12.5681 13.1976 12.5701 13.193 12.5711 13.1881C12.572 13.1832 12.5719 13.1782 12.5708 13.1733C12.5558 13.1142 12.5767 13.0867 12.6392 13.0867C15.2969 13.0806 17.9544 13.0811 20.6117 13.0883C20.6247 13.0884 20.6374 13.0917 20.6486 13.098C20.6599 13.1042 20.6692 13.1133 20.6758 13.1242L20.7292 13.2117Z" fill="#02BCDD"/>
<path d="M3 13.995L3.08 14.6242C3.08142 14.6353 3.08679 14.6455 3.09508 14.6528C3.10336 14.6602 3.11401 14.6642 3.125 14.6642L8.5225 14.67C8.5376 14.67 8.55235 14.6746 8.56473 14.6832C8.57711 14.6919 8.58652 14.7041 8.59167 14.7183L8.68083 14.9758C8.68194 14.9786 8.68305 14.9786 8.68417 14.9758C8.70639 14.9097 8.71917 14.8436 8.7225 14.7775C8.72472 14.7297 8.73556 14.7272 8.755 14.77C8.765 14.7928 8.76972 14.8278 8.76917 14.875C8.75917 15.5628 8.7725 16.9031 8.80917 18.8958C8.84083 18.9964 8.81556 19.0669 8.73333 19.1075C6.83556 20.0397 4.93806 20.9719 3.04083 21.9042C3.03753 21.9059 3.03379 21.9067 3.03 21.9066C3.0262 21.9064 3.02247 21.9053 3.01917 21.9033L3 21.8908V13.995Z" fill="#02BCDD"/>
<path d="M37.8717 31.3542L37.8558 28.6717C37.8553 28.64 37.8525 28.6397 37.8475 28.6708L37.82 28.8275C37.8167 28.8469 37.8153 28.8469 37.8158 28.8275C37.8181 28.6747 37.8047 28.5231 37.7758 28.3725C37.7547 28.2625 37.7453 28.2636 37.7475 28.3758L37.7508 28.5267C37.7509 28.5329 37.7498 28.5391 37.7474 28.5449C37.7451 28.5506 37.7416 28.5559 37.7371 28.5602C37.7327 28.5646 37.7274 28.568 37.7216 28.5703C37.7158 28.5725 37.7096 28.5736 37.7033 28.5733L37.1675 28.5558C37.1612 28.5557 37.155 28.5569 37.1492 28.5593C37.1434 28.5617 37.1382 28.5654 37.134 28.57C37.1298 28.5746 37.1267 28.58 37.1248 28.5859C37.123 28.5918 37.1225 28.5981 37.1233 28.6042C37.1394 28.7225 37.1006 28.8117 37.0067 28.8717C36.9941 28.8798 36.98 28.8851 36.9653 28.8872C36.9506 28.8894 36.9357 28.8883 36.9217 28.8842L36.5058 28.76C36.4909 28.7554 36.4779 28.7462 36.4686 28.7338C36.4593 28.7213 36.4542 28.7063 36.4542 28.6908V28.6133C36.4542 28.6016 36.4496 28.5904 36.4415 28.5821C36.4333 28.5738 36.4223 28.5692 36.4108 28.5692C35.985 28.5658 33.9242 28.47 33.72 28.6567C33.7172 28.6592 33.7138 28.661 33.7102 28.6621C33.7066 28.6632 33.7028 28.6634 33.6991 28.6629C33.6953 28.6623 33.6918 28.661 33.6886 28.6589C33.6855 28.6568 33.6828 28.6541 33.6808 28.6508L33.6592 28.6125C33.652 28.6004 33.6418 28.5903 33.6296 28.5833C33.6173 28.5762 33.6034 28.5725 33.5892 28.5725L32.24 28.5608C32.2394 28.5608 32.2389 28.5608 32.2383 28.5608L32.22 28.5433C32.2136 28.5372 32.2052 28.5338 32.1964 28.5336C32.1876 28.5335 32.1791 28.5366 32.1725 28.5425L32.1242 28.5842C32.1049 28.6008 32.0798 28.6091 32.0542 28.6075C32.0053 28.6036 31.9744 28.5747 31.9617 28.5208H32.0008C32.0062 28.5209 32.0114 28.52 32.0164 28.518C32.0213 28.5161 32.0259 28.5131 32.0297 28.5094C32.0335 28.5057 32.0365 28.5012 32.0385 28.4963C32.0406 28.4914 32.0417 28.4862 32.0417 28.4808V20.985C32.0417 20.972 32.0453 20.9593 32.0521 20.9484C32.0589 20.9375 32.0685 20.9288 32.08 20.9233L37.8142 18.1033C37.8178 18.1016 37.8219 18.1009 37.8259 18.1011C37.83 18.1013 37.8339 18.1025 37.8373 18.1046C37.8407 18.1067 37.8435 18.1095 37.8454 18.113C37.8473 18.1164 37.8483 18.1202 37.8483 18.1242L37.8717 31.3542Z" fill="#02BCDD"/>
<path d="M5.8125 24.3158C5.83861 24.3481 5.85083 24.3775 5.84917 24.4042C5.84894 24.4088 5.84966 24.4134 5.85127 24.4178C5.85289 24.4221 5.85537 24.4261 5.85856 24.4294C5.86176 24.4328 5.8656 24.4354 5.86986 24.4372C5.87412 24.4391 5.8787 24.44 5.88333 24.44C9.46389 24.4372 13.0444 24.4361 16.625 24.4367C16.7844 24.4367 16.9392 24.4125 17.0892 24.3642C17.0945 24.3624 17.1002 24.3617 17.1058 24.3622C17.1114 24.3627 17.1169 24.3643 17.122 24.3669C17.127 24.3695 17.1315 24.3731 17.1352 24.3775C17.1388 24.3819 17.1416 24.387 17.1433 24.3925C17.1517 24.4197 17.1536 24.4486 17.1492 24.4792L8.87917 28.55C8.87633 28.5514 8.87387 28.5535 8.87203 28.556C8.87018 28.5586 8.869 28.5616 8.86859 28.5647C8.86818 28.5679 8.86854 28.571 8.86966 28.574C8.87078 28.577 8.87262 28.5796 8.875 28.5817L8.89583 28.6008C7.03472 27.6875 5.17528 26.7703 3.3175 25.8492C3.21361 25.7975 3.15639 25.7239 3.14583 25.6283L5.8125 24.3158Z" fill="#02BCDD"/>
<path d="M31.9617 28.5208C31.9744 28.5747 32.0053 28.6036 32.0542 28.6075C32.0798 28.6091 32.1049 28.6008 32.1242 28.5842L32.1725 28.5425C32.1791 28.5366 32.1876 28.5335 32.1964 28.5336C32.2052 28.5338 32.2136 28.5372 32.22 28.5433L32.2383 28.5608C32.2389 28.5608 32.2394 28.5608 32.24 28.5608L33.5892 28.5725C33.6034 28.5725 33.6173 28.5762 33.6296 28.5833C33.6418 28.5903 33.652 28.6004 33.6592 28.6125L33.6808 28.6508C33.6828 28.6541 33.6855 28.6568 33.6886 28.6589C33.6918 28.661 33.6953 28.6623 33.6991 28.6629C33.7028 28.6634 33.7066 28.6632 33.7102 28.6621C33.7138 28.661 33.7172 28.6592 33.72 28.6567C33.9242 28.47 35.985 28.5658 36.4108 28.5692C36.4223 28.5692 36.4333 28.5738 36.4415 28.5821C36.4496 28.5904 36.4542 28.6016 36.4542 28.6133V28.6908C36.4542 28.7063 36.4593 28.7213 36.4686 28.7338C36.4779 28.7462 36.4909 28.7554 36.5058 28.76L36.9217 28.8842C36.9357 28.8883 36.9506 28.8894 36.9653 28.8872C36.98 28.8851 36.9941 28.8798 37.0067 28.8717C37.1006 28.8117 37.1394 28.7225 37.1233 28.6042C37.1225 28.5981 37.123 28.5918 37.1248 28.5859C37.1267 28.58 37.1298 28.5746 37.134 28.57C37.1382 28.5654 37.1434 28.5617 37.1492 28.5593C37.155 28.5569 37.1612 28.5557 37.1675 28.5558L37.7033 28.5733C37.7096 28.5736 37.7158 28.5725 37.7216 28.5703C37.7274 28.568 37.7327 28.5646 37.7371 28.5602C37.7416 28.5559 37.7451 28.5506 37.7474 28.5449C37.7498 28.5391 37.7509 28.5329 37.7508 28.5267L37.7475 28.3758C37.7453 28.2636 37.7547 28.2625 37.7758 28.3725C37.8047 28.5231 37.8181 28.6747 37.8158 28.8275C37.8153 28.8469 37.8167 28.8469 37.82 28.8275L37.8475 28.6708C37.8525 28.6397 37.8553 28.64 37.8558 28.6717L37.8717 31.3542L37.875 31.4075C37.876 31.4203 37.8731 31.4331 37.8666 31.4444C37.86 31.4557 37.8502 31.4649 37.8383 31.4708C35.9622 32.3897 34.0872 33.3108 32.2133 34.2342C32.1167 34.2814 32.0425 34.2925 31.9908 34.2675C32.0569 32.8186 32.0686 31.3667 32.0258 29.9117C32.0208 29.7472 31.9364 29.6586 31.7725 29.6458C31.1183 29.595 30.2383 29.6492 29.7908 29.6517C28.6317 29.6583 27.5767 29.6717 26.3175 29.6508C25.2297 29.6336 24.1422 29.6475 23.055 29.6925C23.0532 29.6925 23.0514 29.6929 23.0497 29.6936C23.048 29.6943 23.0465 29.6954 23.0453 29.6967C23.044 29.698 23.043 29.6996 23.0424 29.7013C23.0418 29.703 23.0416 29.7048 23.0417 29.7067L23.0433 29.7508C23.0439 29.7637 23.0402 29.7764 23.0329 29.7872C23.0255 29.798 23.0149 29.8063 23.0025 29.8108C22.9892 29.8158 22.9744 29.8175 22.9583 29.8158L18.5333 27.635C18.4911 27.6139 18.4911 27.5931 18.5333 27.5725L24.2875 24.7475C24.3009 24.7408 24.3158 24.7372 24.3308 24.7372C24.3459 24.7372 24.3607 24.7408 24.3742 24.7475L31.9475 28.4917C31.9493 28.4924 31.9509 28.4937 31.9522 28.4952C31.9535 28.4968 31.9545 28.4987 31.955 28.5008L31.9617 28.5208Z" fill="#02BCDD"/>
<path d="M3.14583 25.6283C3.15639 25.7239 3.21361 25.7975 3.3175 25.8492C5.17528 26.7703 7.03472 27.6875 8.89583 28.6008L13.2292 30.7325L13.2117 30.7558C13.2093 30.759 13.2077 30.7625 13.2068 30.7663C13.2059 30.7701 13.2058 30.7741 13.2065 30.7779C13.2072 30.7817 13.2087 30.7854 13.2109 30.7886C13.2131 30.7918 13.2159 30.7946 13.2192 30.7967L13.3742 30.895C13.4275 30.9283 13.4233 30.9378 13.3617 30.9233C13.2811 30.9044 13.1794 30.895 13.0567 30.895C9.79 30.8967 6.52167 30.8969 3.25167 30.8958C3.23861 30.8959 3.22574 30.8987 3.21394 30.9042C3.20214 30.9096 3.1917 30.9176 3.18333 30.9275C3.05111 31.0853 3.01667 31.2692 3.08 31.4792L3 31.4325V25.7033L3.14583 25.6283Z" fill="#02BCDD"/>
<path d="M31.9908 34.2675L22.9583 29.8158C22.9744 29.8175 22.9892 29.8158 23.0025 29.8108C23.0149 29.8063 23.0255 29.798 23.0329 29.7872C23.0402 29.7764 23.0439 29.7637 23.0433 29.7508L23.0417 29.7067C23.0416 29.7048 23.0418 29.703 23.0424 29.7013C23.043 29.6996 23.044 29.698 23.0453 29.6967C23.0465 29.6954 23.048 29.6943 23.0497 29.6936C23.0514 29.6929 23.0532 29.6925 23.055 29.6925C24.1422 29.6475 25.2297 29.6336 26.3175 29.6508C27.5767 29.6717 28.6317 29.6583 29.7908 29.6517C30.2383 29.6492 31.1183 29.595 31.7725 29.6458C31.9364 29.6586 32.0208 29.7472 32.0258 29.9117C32.0686 31.3667 32.0569 32.8186 31.9908 34.2675Z" fill="#02BCDD"/>
<path d="M13.2292 30.7325L14.5883 31.415C14.6183 31.43 14.6181 31.445 14.5875 31.46L8.85083 34.2808C8.83942 34.2863 8.82697 34.2891 8.81442 34.2891C8.80186 34.2891 8.78953 34.2863 8.77833 34.2808L3.08 31.4792C3.01667 31.2692 3.05111 31.0853 3.18333 30.9275C3.1917 30.9176 3.20214 30.9096 3.21394 30.9042C3.22574 30.8987 3.23861 30.8959 3.25167 30.8958C6.52167 30.8969 9.79 30.8967 13.0567 30.895C13.1794 30.895 13.2811 30.9044 13.3617 30.9233C13.4233 30.9378 13.4275 30.9283 13.3742 30.895L13.2192 30.7967C13.2159 30.7946 13.2131 30.7918 13.2109 30.7886C13.2087 30.7854 13.2072 30.7817 13.2065 30.7779C13.2058 30.7741 13.2059 30.7701 13.2068 30.7663C13.2077 30.7625 13.2093 30.759 13.2117 30.7558L13.2292 30.7325Z" fill="#02BCDD"/>
<path d="M24.6875 37.9133C24.7192 37.8728 24.7333 37.8258 24.73 37.7725C24.7294 37.761 24.7243 37.7502 24.716 37.7423C24.7076 37.7344 24.6965 37.73 24.685 37.73C21.8725 37.7275 19.0617 37.7275 16.25 37.73C16.2365 37.73 16.2232 37.7331 16.2112 37.739C16.1992 37.745 16.1888 37.7536 16.1808 37.7642C16.1458 37.8092 16.1411 37.8589 16.1667 37.9133L12.7183 36.2242C12.6728 36.2019 12.6728 36.1797 12.7183 36.1575L18.4425 33.3408C18.4571 33.3338 18.473 33.3302 18.4892 33.3302C18.5053 33.3302 18.5213 33.3338 18.5358 33.3408L20.3733 34.2433C20.391 34.2519 20.4104 34.2563 20.43 34.2563C20.4496 34.2563 20.469 34.2519 20.4867 34.2433L22.3242 33.3367C22.3367 33.3307 22.3503 33.3276 22.3642 33.3276C22.378 33.3276 22.3917 33.3307 22.4042 33.3367L28.1625 36.1692C28.1914 36.1836 28.1914 36.1978 28.1625 36.2117L24.6875 37.9133Z" fill="#02BCDD"/>
<path d="M24.6875 37.9133L20.4742 40H20.37L16.1667 37.9133C16.1411 37.8589 16.1458 37.8092 16.1808 37.7642C16.1888 37.7536 16.1992 37.745 16.2112 37.739C16.2232 37.7331 16.2365 37.73 16.25 37.73C19.0617 37.7275 21.8725 37.7275 24.685 37.73C24.6965 37.73 24.7076 37.7344 24.716 37.7423C24.7243 37.7502 24.7294 37.761 24.73 37.7725C24.7333 37.8258 24.7192 37.8728 24.6875 37.9133Z" fill="#02BCDD"/>
</svg>
