<svg width="38" height="32" viewBox="0 0 38 32" fill="none" xmlns="http://www.w3.org/2000/svg">
<path d="M34.4892 0.856801C29.5676 2.8952 8.46441 11.6364 2.63361 14.0188C-1.27679 15.5448 1.01241 16.9756 1.01241 16.9756C1.01241 16.9756 4.35041 18.12 7.21201 18.9784C10.0732 19.8368 11.5992 18.8832 11.5992 18.8832L25.0472 9.8224C29.816 6.5796 28.6716 9.25 27.5268 10.3948C25.0472 12.8748 20.946 16.7848 17.5124 19.9324C15.9864 21.2676 16.7492 22.412 17.4172 22.9844C19.8968 25.0828 26.6688 29.3748 27.05 29.6608C29.0648 31.0872 33.028 33.1404 33.6308 28.8024L36.0152 13.8284C36.7784 8.7736 37.5412 4.1 37.6364 2.7648C37.9228 -0.478399 34.4892 0.856801 34.4892 0.856801Z" fill="#1B92D1"/>
</svg>
