<svg width="40" height="32" viewBox="0 0 40 32" fill="none" xmlns="http://www.w3.org/2000/svg">
<path d="M8.32839 19.0123C8.32842 18.7886 8.37265 18.5672 8.4585 18.3606C8.54436 18.1541 8.67015 17.9666 8.82869 17.8088C8.98725 17.6511 9.17536 17.5262 9.3823 17.4413C9.58924 17.3564 9.8109 17.3133 10.0346 17.3143L12.8634 17.3236C13.3144 17.3236 13.7469 17.5027 14.0659 17.8217C14.3848 18.1406 14.564 18.5731 14.564 19.0242V29.7203C14.8824 29.6258 15.2914 29.525 15.739 29.4197C16.0499 29.3466 16.3269 29.1707 16.5252 28.9204C16.7235 28.6701 16.8314 28.3602 16.8313 28.0408V14.7727C16.8313 14.3216 17.0105 13.889 17.3294 13.5701C17.6483 13.2511 18.0808 13.0719 18.5319 13.0718H21.3663C21.8174 13.0719 22.2499 13.2511 22.5688 13.5701C22.8877 13.889 23.0669 14.3216 23.0669 14.7727V27.0868C23.0669 27.0868 23.7766 26.7996 24.4678 26.5079C24.7246 26.3993 24.9437 26.2175 25.0979 25.9851C25.252 25.7528 25.3343 25.4803 25.3346 25.2015V10.5212C25.3346 10.0703 25.5137 9.63774 25.8325 9.31883C26.1514 8.99992 26.5838 8.82074 27.0348 8.82064H29.8692C30.3203 8.82064 30.7528 8.99979 31.0717 9.31873C31.3907 9.63764 31.5698 10.0702 31.5698 10.5212V22.6101C34.0272 20.8291 36.5175 18.6873 38.4937 16.1117C38.7805 15.7378 38.9702 15.2988 39.046 14.8339C39.1217 14.3689 39.0812 13.8924 38.9281 13.4469C38.0132 10.8149 36.5593 8.40287 34.6588 6.36513C32.7583 4.32743 30.4534 2.70886 27.8915 1.61305C25.3297 0.517246 22.5672 -0.0316773 19.781 0.00141171C16.9948 0.0345003 14.2462 0.648874 11.7111 1.80521C9.17598 2.96155 6.91016 4.63438 5.05865 6.71668C3.20714 8.79894 1.81072 11.2448 0.95874 13.8978C0.106767 16.5507 -0.181996 19.3523 0.11093 22.1233C0.403856 24.8942 1.27202 27.5735 2.65987 29.9897C2.90164 30.4065 3.25733 30.7456 3.68514 30.9673C4.11295 31.189 4.59514 31.2839 5.07508 31.2411C5.61121 31.194 6.27873 31.1272 7.07238 31.034C7.41787 30.9947 7.73684 30.8298 7.96851 30.5705C8.20022 30.3112 8.32842 29.9758 8.32872 29.6281L8.32839 19.0123Z" fill="#2D4683"/>
</svg>
