<svg width="40" height="40" viewBox="0 0 40 40" fill="none" xmlns="http://www.w3.org/2000/svg">
<path d="M34.7831 23.9011C34.4665 24.116 34.0969 24.2429 33.7133 24.2682C33.3296 24.2936 32.9462 24.2166 32.6032 24.0453C31.7982 23.5973 31.3644 22.5467 31.3644 21.115V16.7272C31.3644 14.6208 30.5175 13.1222 29.1009 12.7153C26.7067 12.0252 24.919 14.9144 24.229 16.001L19.9948 22.7527V14.5127C19.9477 12.6123 19.3204 11.4742 18.1338 11.1343C17.3497 10.9077 16.1736 11.0004 15.0288 12.7205L5.56195 27.6915C4.30235 25.3173 3.64924 22.6764 3.65917 19.9974C3.65917 10.9746 10.9775 3.6359 19.9948 3.6359C29.012 3.6359 36.3565 10.9746 36.3565 19.9974V20.0438C36.3565 20.0438 36.3565 20.0747 36.3565 20.0901C36.4454 21.836 35.8704 23.2265 34.7883 23.9011H34.7831ZM40.0105 20.0026V19.915C39.9373 8.91979 30.988 0 19.9948 0C9.00157 0 0 8.97129 0 19.9974C0 31.0236 8.97021 40 19.9948 40C25.0511 39.9998 29.9151 38.0904 33.586 34.6646C33.9423 34.3339 34.152 33.8781 34.1696 33.3961C34.1872 32.9142 34.0113 32.4447 33.6801 32.0896C33.5216 31.9169 33.3299 31.7767 33.1162 31.6772C32.9025 31.5777 32.671 31.5208 32.4348 31.5098C32.1987 31.4988 31.9627 31.5339 31.7404 31.6131C31.5182 31.6922 31.3139 31.8139 31.1396 31.9712C29.5591 33.4481 27.692 34.5952 25.6504 35.3436C23.6088 36.092 21.4347 36.4262 19.2587 36.3261C17.0827 36.2261 14.9496 35.6939 12.9876 34.7614C11.0256 33.829 9.27503 32.5155 7.84109 30.9L16.3617 17.407V23.6333C16.3617 26.6255 17.5379 27.5937 18.5259 27.8769C19.5139 28.1602 21.0246 27.9645 22.6085 25.4307L27.3131 17.9271C27.4595 17.6851 27.6006 17.4791 27.7261 17.2988V21.115C27.7261 23.9114 28.8657 26.1465 30.8625 27.2486C31.7705 27.7315 32.7937 27.9648 33.8247 27.9241C34.8557 27.8833 35.8566 27.5699 36.7224 27.0169C38.9179 25.6109 40.115 23.0668 39.9896 20.0026H40.0105Z" fill="#2865F2"/>
</svg>
