<svg width="18" height="18" viewBox="0 0 18 18" fill="none" xmlns="http://www.w3.org/2000/svg">
<path d="M3 8.4375C2.68934 8.4375 2.4375 8.68935 2.4375 9C2.4375 9.31065 2.68934 9.5625 3 9.5625H9.9375V13.5C9.9375 13.7275 10.0745 13.9326 10.2848 14.0197C10.4949 14.1067 10.7369 14.0587 10.8977 13.8978L15.3977 9.3978C15.5033 9.29228 15.5625 9.14918 15.5625 9C15.5625 8.85082 15.5033 8.70773 15.3977 8.60227L10.8977 4.10227C10.7369 3.94139 10.4949 3.89327 10.2848 3.98033C10.0745 4.0674 9.9375 4.27251 9.9375 4.50002V8.4375H3Z" fill="#FDBF47"/>
</svg>
