<svg width="539" height="196" viewBox="0 0 539 196" fill="none" xmlns="http://www.w3.org/2000/svg">
<g clip-path="url(#clip0_21_5)">
<g opacity="0.2">
<path d="M469.8 -405.038L467.087 -404.033C457.235 -430.334 436.443 -448.741 405.295 -458.749C373.965 -468.814 343.775 -466.609 335.271 -465.694C318.567 -463.895 291.425 -458.705 256.964 -444.183C224.208 -430.381 192.841 -411.522 163.736 -388.131C96.6671 -334.139 45.3457 -263.119 15.1443 -182.504C3.53154 -151.552 -3.55011 -119.027 -5.33144 -88.4479C-7.22368 -55.969 -3.34478 -26.5792 6.19736 -1.09822C27.434 55.6113 77.8344 77.0985 169.615 68.5735C253.064 60.8208 298.948 102.323 347.527 146.261L348.939 147.538C373.113 169.401 401.59 182.784 429.123 185.227C457.836 187.773 482.951 178.529 501.751 158.495C518.605 140.536 527.958 117.853 529.553 91.0768C531.125 64.6882 525.239 33.4596 512.056 -1.74196C509.076 -9.7018 505.668 -18.0068 501.93 -26.4254C494.937 -42.1745 489.136 -56.2432 484.196 -69.4355C453.057 -152.588 449.209 -223.263 469.997 -330.201C475.606 -359.056 474.629 -383.893 467.091 -404.023L469.8 -405.038ZM469.797 -405.048C476.989 -385.849 478.971 -361.203 472.837 -329.649C450.777 -216.167 457.934 -147.815 486.906 -70.4503C492.108 -56.5595 498.01 -42.3856 504.576 -27.5998C508.339 -19.1216 511.736 -10.8406 514.766 -2.75673C541.201 67.8328 539.103 122.92 503.862 160.473C463.358 203.634 396.666 194.6 346.997 149.684C297.329 104.767 252.851 63.7464 169.882 71.4537C86.9146 79.1604 27.4172 63.8174 3.48757 -0.0834489C-16.4746 -53.3897 -10.7543 -121.716 12.436 -183.52C42.8503 -264.604 94.4756 -336.044 161.923 -390.384C225.429 -441.423 291.186 -463.858 334.961 -468.568C368.417 -472.17 446.475 -467.3 469.797 -405.048Z" fill="#FFFFB0"/>
<path d="M450.354 -374.458L447.64 -373.454C438.806 -397.036 420.155 -413.546 392.209 -422.524C364.067 -431.566 336.948 -429.585 329.307 -428.762C314.294 -427.146 289.896 -422.48 258.913 -409.424C229.458 -397.013 201.252 -380.054 175.076 -359.017C114.755 -310.458 68.5967 -246.582 41.434 -174.078C30.9906 -146.248 24.6246 -117.005 23.0228 -89.5121C21.3233 -60.3215 24.8076 -33.9112 33.3815 -11.0157C52.4412 39.8806 97.7092 59.1605 180.161 51.5017C255.389 44.5141 296.731 81.9066 340.502 121.495L341.771 122.644C363.483 142.277 389.052 154.299 413.769 156.49C439.519 158.773 462.041 150.486 478.898 132.522C494.019 116.41 502.411 96.0561 503.842 72.0263C505.254 48.317 499.961 20.2518 488.112 -11.3904C485.43 -18.5513 482.368 -26.0206 479.005 -33.5914C472.71 -47.7695 467.488 -60.4371 463.04 -72.316C434.993 -147.21 431.526 -210.858 450.245 -307.162C455.285 -333.078 454.409 -355.379 447.644 -373.444L450.354 -374.458ZM450.35 -374.469C456.824 -357.189 458.606 -335.008 453.086 -306.61C433.233 -204.477 439.675 -142.959 465.749 -73.3308C470.431 -60.8289 475.742 -48.0739 481.651 -34.7647C485.039 -27.1353 488.096 -19.6822 490.822 -12.4052C514.612 51.124 512.725 100.703 481.007 134.501C444.555 173.346 384.532 165.215 339.83 124.79C295.129 84.3646 255.098 47.4464 180.427 54.3824C105.757 61.3184 52.2086 47.5103 30.6717 -10.001C12.706 -57.9758 17.8536 -119.471 38.7248 -175.095C66.0994 -248.069 112.562 -312.364 173.263 -361.272C230.419 -407.205 289.6 -427.396 328.998 -431.637C359.109 -434.879 429.36 -430.494 450.35 -374.469Z" fill="#FFFFB0"/>
<path d="M430.906 -343.881L428.193 -342.875C420.376 -363.741 403.868 -378.351 379.124 -386.3C354.17 -394.317 330.12 -392.56 323.343 -391.829C310.021 -390.396 288.366 -386.253 260.861 -374.666C234.708 -363.644 209.66 -348.585 186.415 -329.905C132.843 -286.776 91.8486 -230.046 67.7236 -165.652C48.2089 -113.644 45.6001 -60.8964 60.5662 -20.9317C77.4479 24.1486 117.586 41.2234 190.706 34.4307C257.716 28.2067 294.515 61.4897 333.475 96.7291L334.605 97.7498C353.852 115.156 376.514 125.812 398.415 127.754C421.202 129.775 441.13 122.442 456.044 106.55C469.433 92.2819 476.864 74.2578 478.131 52.9751C479.384 31.9454 474.687 7.04304 464.17 -21.0412C461.789 -27.4004 459.066 -34.0336 456.081 -40.7565C450.482 -53.3673 445.836 -64.6325 441.88 -75.1966C416.927 -141.83 413.842 -198.454 430.495 -284.121C434.963 -307.1 434.189 -326.864 428.197 -342.866L430.906 -343.881ZM430.903 -343.89C436.658 -328.531 438.242 -308.813 433.336 -283.57C415.687 -192.785 421.413 -138.103 444.59 -76.2114C448.752 -65.0983 453.474 -53.7609 458.725 -41.9307C461.737 -35.1481 464.455 -28.5232 466.88 -22.056C488.027 34.4154 486.348 78.4853 458.155 108.528C425.752 143.056 372.399 135.83 332.664 99.8956C292.929 63.9626 257.346 31.1459 190.973 37.3108C124.597 43.478 76.9997 31.2027 57.8564 -19.9169C41.8863 -62.5627 46.4619 -117.225 65.014 -166.667C89.3464 -231.533 130.647 -288.686 184.604 -332.159C235.409 -372.988 288.015 -390.938 323.035 -394.706C349.801 -397.587 412.246 -393.69 430.903 -343.89Z" fill="#FFFFB0"/>
<path d="M411.46 -313.302L408.747 -312.295C393.84 -352.084 344.301 -357.796 317.38 -354.9C303.215 -353.374 252.722 -344.965 197.757 -300.792C150.931 -263.095 115.099 -213.509 94.0135 -157.225C76.9675 -111.799 74.6852 -65.7375 87.7503 -30.8492C102.455 8.41796 137.46 23.2857 201.25 17.3597C260.043 11.8992 292.3 41.0739 326.45 71.9628L327.438 72.8566C344.221 88.0345 363.975 97.3246 383.062 99.0178C402.885 100.776 420.22 94.3989 433.192 80.5767C444.847 68.1557 451.316 52.4611 452.419 33.9246C453.514 15.5753 449.41 -6.16474 440.225 -30.691C438.144 -36.2476 435.766 -42.0454 433.156 -47.923C428.255 -58.9621 424.188 -68.8259 420.724 -78.0767C398.864 -136.452 396.158 -186.051 410.744 -261.082C414.639 -281.122 413.969 -298.35 408.75 -312.287L411.46 -313.302ZM411.457 -313.31C416.492 -299.872 417.878 -282.618 413.585 -260.531C398.144 -181.095 403.153 -133.247 423.434 -79.0914C427.075 -69.3687 431.205 -59.4474 435.801 -49.0971C438.437 -43.1618 440.815 -37.3647 442.935 -31.7058C461.439 17.7068 459.97 56.2678 435.302 82.5557C406.95 112.767 360.266 106.443 325.496 75.0016C290.729 43.5596 259.594 14.8456 201.516 20.2399C143.44 25.6356 101.791 14.8951 85.0405 -29.8344C71.0671 -67.1483 75.0709 -114.978 91.3038 -158.241C112.594 -214.999 148.732 -265.008 195.945 -303.046C240.399 -338.773 286.428 -354.476 317.072 -357.774C340.491 -360.297 395.132 -356.886 411.457 -313.31Z" fill="#FFFFB0"/>
<path d="M392.012 -282.725L389.3 -281.716C376.611 -315.584 334.376 -320.438 311.418 -317.967C299.303 -316.664 256.124 -309.472 209.098 -271.678C169.019 -239.414 138.35 -196.974 120.303 -148.799C105.726 -109.954 103.77 -70.5786 114.934 -40.7667C127.462 -7.31401 157.335 5.34747 211.793 0.288807C262.369 -4.4092 290.083 20.6586 319.425 47.1963L320.27 47.9626C334.591 60.9118 351.436 68.8377 367.708 70.2806C384.569 71.7755 399.31 66.3547 410.338 54.603C420.26 44.0296 425.768 30.6636 426.709 14.875C427.642 -0.795623 424.134 -19.373 416.282 -40.3413C414.501 -45.0973 412.466 -50.0592 410.233 -55.0881C406.027 -64.5575 402.538 -73.0207 399.566 -80.958C380.799 -131.073 378.476 -173.647 390.993 -238.044C394.318 -255.144 393.749 -269.835 389.302 -281.71L392.012 -282.725ZM392.01 -282.731C396.325 -271.212 397.515 -256.424 393.834 -237.492C380.598 -169.403 384.893 -128.391 402.276 -81.9728C405.396 -73.6386 408.937 -65.1344 412.877 -56.2622C415.135 -51.1751 417.173 -46.2063 418.991 -41.356C434.852 0.997131 433.592 34.0498 412.448 56.5815C388.146 82.4788 348.131 77.058 318.331 50.1067C288.529 23.1576 261.842 -1.45489 212.062 3.16988C162.281 7.79369 126.582 -1.41197 112.225 -39.752C100.247 -71.7357 103.679 -112.732 117.594 -149.815C135.842 -198.464 166.817 -241.328 207.285 -273.933C245.388 -304.556 284.843 -318.018 311.108 -320.843C331.182 -323.003 378.017 -320.082 392.01 -282.731Z" fill="#FFFFB0"/>
<path d="M372.565 -252.147L369.853 -251.137C359.383 -279.084 324.446 -283.081 305.453 -281.037C295.392 -279.954 259.525 -273.978 220.438 -242.566C187.106 -215.732 161.601 -180.436 146.592 -140.372C134.486 -108.11 132.855 -75.4198 142.118 -50.6843C152.469 -23.0447 177.21 -12.5892 222.339 -16.7812C264.696 -20.7166 287.868 0.241103 312.399 22.4304L313.105 23.0678C338.054 45.6315 369.336 47.97 387.485 28.6305C403.98 11.0531 405.567 -14.6644 392.338 -49.9913C390.858 -53.945 389.165 -58.0708 387.308 -62.2545C383.8 -70.1539 380.888 -77.2152 378.407 -83.8394C362.734 -125.692 360.793 -161.242 371.243 -215.003C373.996 -229.166 373.529 -241.32 369.855 -251.132L372.565 -252.147ZM372.563 -252.152C376.159 -242.552 377.151 -230.23 374.083 -214.453C363.053 -157.712 366.632 -123.535 381.117 -84.8542C383.719 -77.9073 386.67 -70.8214 389.953 -63.4273C391.835 -59.1883 393.533 -55.0479 395.048 -51.0061C408.265 -15.7109 407.216 11.8318 389.596 30.6087C369.344 52.1897 335.997 47.6717 311.163 25.2142C286.329 2.7556 264.089 -17.7553 222.607 -13.9017C181.122 -10.0483 151.374 -17.7191 139.409 -49.6695C129.427 -76.3228 132.288 -110.486 143.883 -141.389C159.09 -181.93 184.903 -217.651 218.626 -244.821C250.38 -270.339 283.257 -281.556 305.145 -283.912C321.874 -285.712 360.902 -283.278 372.563 -252.152Z" fill="#FFFFB0"/>
<path d="M353.118 -221.568L350.407 -220.557C340.072 -248.142 301.143 -244.283 299.49 -244.104C291.482 -243.244 262.924 -238.484 231.78 -213.454C205.196 -192.052 184.853 -163.901 172.881 -131.946C163.245 -106.264 161.941 -80.2609 169.303 -60.6018C177.476 -38.7766 197.085 -30.5272 232.884 -33.853C267.023 -37.0241 285.651 -20.1741 305.374 -2.33593L305.938 -1.8248C325.654 16.0037 350.338 17.8889 364.633 2.65714C377.663 -11.2276 378.892 -31.6058 368.393 -59.6414C367.213 -62.7933 365.863 -66.0838 364.383 -69.4191C361.572 -75.7503 359.238 -81.4097 357.25 -86.7189C344.669 -120.315 343.109 -148.838 351.492 -191.964C353.674 -203.188 353.31 -212.806 350.408 -220.553L353.118 -221.568ZM353.116 -221.573C355.994 -213.893 356.786 -204.034 354.333 -191.413C345.508 -146.02 348.371 -118.679 359.96 -87.7337C362.041 -82.1772 364.4 -76.508 367.027 -70.5933C368.534 -67.2031 369.892 -63.8907 371.103 -60.6562C381.677 -32.4198 380.839 -10.3854 366.742 4.63613C350.541 21.8999 323.864 18.2865 303.996 0.319894C284.129 -17.6467 266.338 -34.0544 233.151 -30.9726C199.965 -27.8895 176.165 -34.0266 166.593 -59.587C158.608 -80.9087 160.896 -108.239 170.172 -132.961C182.338 -165.395 202.988 -193.971 229.968 -215.708C255.369 -236.122 281.672 -245.096 299.183 -246.981C312.565 -248.421 343.788 -246.474 353.116 -221.573Z" fill="#FFFFB0"/>
</g>
</g>
<defs>
<clipPath id="clip0_21_5">
<rect width="539" height="196" fill="white"/>
</clipPath>
</defs>
</svg>
