<svg width="528" height="548" viewBox="0 0 528 548" fill="none" xmlns="http://www.w3.org/2000/svg">
<g opacity="0.65">
<path d="M262.706 528.115L264.384 526.226C282.78 542.442 306.363 548.083 334.474 542.996C362.749 537.879 385.104 523.776 391.281 519.577C403.412 511.328 422.192 496.177 442.778 470.83C462.345 446.738 478.765 419.319 491.58 389.338C521.073 320.182 531.436 244.376 521.585 169.854C517.815 141.235 509.908 113.264 498.717 88.9719C486.831 63.1698 471.767 42.1188 453.946 26.4064C414.283 -8.56251 366.622 -4.41075 299.408 39.8668C238.297 80.1258 185.891 67.0008 130.41 53.1055L128.797 52.7021C101.188 45.7895 73.7484 47.1776 51.531 56.6076C28.3615 66.443 12.8087 83.8837 6.55486 107.044C0.947575 127.806 3.06057 149.127 12.8331 170.412C22.464 191.39 39.8298 213.033 64.4496 234.74C70.0166 239.648 76.0541 244.647 82.3931 249.598C94.2518 258.859 104.502 267.316 113.728 275.45C171.885 326.725 203.887 379.598 231.806 470.535C239.34 495.072 250.298 513.807 264.376 526.219L262.706 528.115ZM262.713 528.121C249.283 516.284 237.63 498.108 229.392 471.276C199.764 374.775 166.166 325.051 112.057 277.346C102.342 268.78 91.9711 260.284 80.8373 251.59C74.4543 246.603 68.4347 241.619 62.7786 236.635C13.4086 193.107 -7.60786 149.801 4.11558 106.387C17.5905 56.491 72.6879 36.0501 129.412 50.2505C186.135 64.4527 237.259 77.7843 298.019 37.7573C358.779 -2.26874 410.925 -14.8921 455.617 24.5112C492.899 57.3816 516.564 112.377 524.089 169.525C533.969 244.495 523.544 320.75 493.902 390.33C465.941 455.747 424.493 500.05 392.701 521.664C368.403 538.185 306.258 566.504 262.713 528.121Z" fill="#EF6400"/>
<path d="M265.125 496.564L266.804 494.675C283.299 509.215 304.452 514.273 329.673 509.709C355.072 505.113 375.153 492.444 380.702 488.671C391.605 481.257 408.487 467.638 426.995 444.849C444.591 423.185 459.355 398.529 470.881 371.566C497.406 309.367 506.727 241.187 497.867 174.163C494.479 148.43 487.369 123.283 477.307 101.442C466.624 78.2521 453.088 59.3347 437.075 45.2167C401.479 13.8323 358.679 17.5761 298.297 57.3532C243.205 93.6454 195.988 81.8205 145.998 69.3017L144.548 68.9378C119.753 62.7313 95.1125 63.9742 75.1683 72.4411C54.3898 81.2614 40.4422 96.9001 34.8343 117.666C29.8037 136.294 31.6997 155.424 40.4703 174.527C49.1233 193.375 64.7322 212.824 86.8627 232.336C91.871 236.752 97.2995 241.248 103.001 245.7C113.677 254.038 122.905 261.653 131.213 268.977C183.593 315.159 212.415 362.775 237.559 444.668C244.325 466.706 254.162 483.529 266.796 494.668L265.125 496.564ZM265.133 496.57C253.045 485.916 242.558 469.559 235.144 445.41C208.478 358.56 178.239 313.808 129.542 270.873C120.798 263.164 111.466 255.518 101.445 247.691C95.6996 243.205 90.2819 238.718 85.1917 234.231C40.7597 195.057 21.8439 156.082 32.3959 117.008C44.522 72.1023 94.1102 53.7056 145.162 66.4869C196.213 79.2684 242.225 91.2665 296.908 55.2432C351.591 19.22 398.523 7.85812 438.746 43.3214C472.3 72.9043 493.599 122.401 500.372 173.834C509.262 241.307 499.88 309.936 473.204 372.558C448.038 431.433 410.735 471.304 382.121 490.759C360.253 505.629 304.323 531.114 265.133 496.57Z" fill="#EF6400"/>
<path d="M267.546 465.014L269.224 463.124C283.819 475.99 302.542 480.464 324.873 476.422C347.393 472.346 365.202 461.112 370.123 457.764C379.799 451.187 394.782 439.097 411.213 418.869C426.836 399.631 439.947 377.737 450.182 353.794C473.74 298.552 482.017 237.999 474.149 178.473C467.817 130.383 448.155 88.6695 420.204 64.0259C388.675 36.2279 350.734 39.5629 297.186 74.8388C248.112 107.166 206.084 96.6411 161.587 85.4967L160.297 85.1743C138.316 79.6704 116.478 80.7715 98.8045 88.2738C80.4172 96.0789 68.0756 109.917 63.1138 128.289C58.6599 144.783 60.3401 161.723 68.1075 178.642C75.7828 195.36 89.633 212.617 109.275 229.935C113.723 233.856 118.546 237.849 123.608 241.802C133.103 249.218 141.311 255.989 148.699 262.503C195.303 303.592 220.944 345.952 243.31 418.801C249.309 438.341 258.026 453.251 269.217 463.119L267.546 465.014ZM267.553 465.019C256.808 455.55 247.486 441.008 240.895 419.543C217.193 342.343 190.315 302.563 147.028 264.399C139.256 257.546 130.959 250.751 122.053 243.793C116.945 239.805 112.129 235.817 107.604 231.83C68.1083 197.008 51.2957 162.363 60.6745 127.631C71.455 87.715 115.532 71.362 160.911 82.7235C206.29 94.0842 247.19 104.749 295.797 72.7293C344.405 40.7066 386.122 30.6087 421.875 62.1307C451.701 88.4275 470.634 132.424 476.654 178.142C484.557 238.118 476.217 299.122 452.504 354.786C430.135 407.119 396.977 442.562 371.542 459.854C352.103 473.071 302.388 495.725 267.553 465.019Z" fill="#EF6400"/>
<path d="M269.966 433.463L271.643 431.573C299.476 456.106 339.992 440.153 359.544 426.86C369.832 419.865 405.281 392.641 429.482 336.022C450.074 287.738 457.309 234.811 450.43 182.781C444.9 140.777 427.734 104.349 403.333 82.8362C375.87 58.6227 342.79 61.5495 296.076 92.3239C253.019 120.687 216.179 111.461 177.175 101.693L176.047 101.41C156.88 96.611 137.843 97.5689 122.441 104.106C106.445 110.896 95.7082 122.932 91.3924 138.912C87.516 153.27 88.9793 168.021 95.7455 182.756C102.441 197.344 114.535 212.408 131.689 227.532C135.575 230.959 139.79 234.449 144.215 237.905C152.528 244.397 159.713 250.326 166.183 256.03C207.011 292.026 229.473 329.13 249.062 392.934C254.295 409.975 261.89 422.974 271.637 431.568L269.966 433.463ZM269.972 433.468C260.571 425.183 252.414 412.458 246.647 393.677C225.907 326.128 202.389 291.32 164.512 257.925C157.712 251.93 150.454 245.983 142.66 239.896C138.191 236.406 133.977 232.916 130.018 229.427C95.4592 198.958 80.7477 168.644 88.954 138.254C98.3861 103.328 136.954 89.0191 176.662 98.9591C216.368 108.901 252.155 118.232 294.687 90.2144C337.218 62.1957 373.721 53.3593 405.004 80.941C431.101 103.95 447.668 142.448 452.935 182.451C459.851 234.93 452.553 288.308 431.805 337.015C412.232 382.807 383.219 413.817 360.963 428.949C343.955 440.514 300.453 460.336 269.972 433.468Z" fill="#EF6400"/>
<path d="M272.387 401.913L274.063 400.022C297.754 420.903 332.291 407.291 348.964 395.955C357.763 389.973 388.077 366.691 408.783 318.25C426.408 276.924 432.601 231.623 426.712 187.091C421.984 151.172 407.313 120.029 386.463 101.646C363.066 81.0184 334.847 83.5365 294.966 109.809C257.927 134.208 226.275 126.28 192.764 117.889L191.797 117.646C175.443 113.552 159.208 114.366 146.078 119.94C132.472 125.716 123.342 135.949 119.673 149.534C116.372 161.758 117.62 174.319 123.382 186.871C129.102 199.328 139.437 212.2 154.102 225.13C157.429 228.063 161.035 231.05 164.822 234.007C171.953 239.575 178.118 244.663 183.669 249.557C218.719 280.46 238.001 312.308 254.815 367.068C259.279 381.61 265.753 392.696 274.058 400.018L272.387 401.913ZM272.392 401.917C264.334 394.815 257.342 383.91 252.399 367.81C234.622 309.91 214.463 280.075 181.999 251.452C176.17 246.313 169.948 241.216 163.267 235.998C159.437 233.006 155.825 230.015 152.431 227.025C122.81 200.909 110.2 174.925 117.235 148.877C125.319 118.938 158.377 106.675 192.411 115.197C226.445 123.716 257.12 131.715 293.575 107.699C330.031 83.6837 361.319 76.1095 388.134 99.7512C410.503 119.473 424.703 152.471 429.217 186.76C435.145 231.741 428.89 277.494 411.106 319.242C394.33 358.493 369.46 385.075 350.385 398.043C335.805 407.955 298.519 424.946 272.392 401.917Z" fill="#EF6400"/>
<path d="M274.808 370.363L276.483 368.471C296.032 385.702 324.593 374.428 338.387 365.05C345.694 360.081 370.874 340.741 388.085 300.478C402.741 266.109 407.891 228.434 402.995 191.398C399.067 161.567 386.892 135.709 369.592 120.457C350.261 103.413 326.903 105.523 293.854 127.294C262.835 147.729 236.37 141.102 208.353 134.084L207.547 133.883C179.053 126.748 153.99 137.799 147.952 160.157C142.465 180.477 151.808 200.944 176.515 222.728C179.28 225.166 182.28 227.649 185.429 230.11C191.378 234.755 196.523 238.999 201.156 243.084C230.427 268.892 246.53 295.485 260.566 341.201C264.264 353.244 269.617 362.418 276.479 368.468L274.808 370.363ZM274.812 370.367C268.097 364.448 262.27 355.36 258.152 341.944C243.338 293.694 226.538 268.832 199.485 244.979C194.626 240.696 189.441 236.448 183.873 232.1C180.682 229.607 177.672 227.115 174.844 224.623C150.159 202.859 139.651 181.207 145.513 159.5C152.25 134.551 179.8 124.331 208.161 131.431C236.523 138.532 262.085 145.198 292.464 125.186C322.845 105.172 348.917 98.8598 371.263 118.561C389.905 134.997 401.737 162.495 405.499 191.069C410.44 228.554 405.227 266.681 390.406 301.471C376.425 334.179 355.702 356.33 339.806 367.138C327.656 375.398 296.585 389.558 274.812 370.367Z" fill="#EF6400"/>
<path d="M277.228 338.813L278.902 336.92C298.198 353.928 326.607 334.96 327.807 334.143C333.624 330.19 353.672 314.789 367.385 282.708C379.074 255.295 383.182 225.247 379.277 195.708C376.15 171.961 366.471 151.389 352.722 139.267C337.458 125.809 318.959 127.509 292.743 144.78C267.742 161.25 246.466 155.921 223.941 150.28L223.296 150.118C200.78 144.482 180.987 153.171 176.231 170.78C171.896 186.831 179.321 203.038 198.929 220.325C201.134 222.269 203.526 224.25 206.037 226.211C210.804 229.934 214.927 233.336 218.64 236.61C242.137 257.326 255.058 278.662 266.318 315.335C269.248 324.879 273.481 332.14 278.899 336.917L277.228 338.813ZM277.232 338.816C271.859 334.081 267.198 326.81 263.903 316.077C252.052 277.477 238.612 257.587 216.969 238.505C213.083 235.079 208.936 231.68 204.482 228.203C201.928 226.209 199.52 224.215 197.259 222.221C177.51 204.809 169.103 187.487 173.792 170.122C179.183 150.163 201.221 141.987 223.911 147.668C246.6 153.348 267.05 158.68 291.354 142.671C315.657 126.66 336.516 121.61 354.393 137.372C369.305 150.519 378.772 172.517 381.782 195.376C385.733 225.365 381.563 255.867 369.707 283.7C358.523 309.865 341.943 327.587 329.226 336.233C319.506 342.841 294.649 354.169 277.232 338.816Z" fill="#EF6400"/>
</g>
</svg>
