<svg width="538" height="627" viewBox="0 0 538 627" fill="none" xmlns="http://www.w3.org/2000/svg">
<g opacity="0.55">
<path d="M109.254 574.771L111.762 573.539C123.811 597.837 145.593 613.477 176.5 620.03C207.587 626.621 236.372 621.536 244.452 619.821C260.322 616.451 285.886 608.798 317.564 591.461C347.675 574.984 375.954 553.784 401.616 528.453C460.741 469.995 503.064 396.725 524.155 316.314C532.27 285.438 535.877 253.497 534.583 223.946C533.209 192.559 526.595 164.707 514.924 141.166C488.95 88.7742 438.421 73.085 351.088 90.2938C271.685 105.942 223.527 70.5812 172.542 33.1452L171.06 32.0575C145.688 13.4306 117.017 3.37206 90.3271 3.73096C62.4931 4.10668 39.2749 15.4546 23.1833 36.5484C8.75713 55.457 2.00079 78.1672 3.10028 104.046C4.18333 129.551 12.9066 158.973 29.0295 191.494C32.6752 198.848 36.7646 206.491 41.1828 214.211C49.4484 228.654 56.4037 241.599 62.446 253.787C100.531 330.608 111.173 398.124 101.711 502.898C99.158 531.169 102.538 554.933 111.758 573.53L109.254 574.771ZM109.259 574.781C100.463 557.044 96.1369 533.562 98.929 502.647C108.969 391.461 95.3767 326.502 59.9425 255.028C53.5803 242.195 46.5174 229.158 38.7568 215.599C34.3084 207.825 30.2315 200.203 26.526 192.735C-5.80517 127.52 -9.20298 74.3945 20.9611 34.8551C55.63 -10.5876 120.586 -8.46308 172.715 29.8049C224.843 68.0747 271.602 103.11 350.549 87.5531C429.495 71.9966 488.16 80.8893 517.427 139.925C541.843 189.172 543.062 255.372 526.857 317.024C505.607 397.906 463.033 471.609 403.579 530.44C347.587 585.711 286.622 613.725 245.032 622.552C213.246 629.3 137.78 632.291 109.259 574.781Z" fill="#EF6400"/>
<path d="M124.931 543.484L127.439 542.252C138.243 564.039 157.782 578.066 185.511 583.945C213.435 589.865 239.292 585.297 246.552 583.756C260.815 580.728 283.795 573.848 312.276 558.261C339.353 543.444 364.782 524.38 387.862 501.599C441.038 449.022 479.103 383.124 498.072 310.803C505.37 283.041 508.612 254.324 507.449 227.755C506.213 199.545 500.27 174.517 489.784 153.364C466.473 106.343 421.091 92.2704 342.636 107.73C271.054 121.836 227.664 89.9766 181.724 56.247L180.392 55.2679C157.605 38.5409 131.861 29.505 107.901 29.829C82.9397 30.1657 62.1185 40.3404 47.6899 59.2534C34.7471 76.218 28.6847 96.5956 29.6717 119.821C30.6448 142.736 38.4873 169.177 52.98 198.41C56.2598 205.026 59.9359 211.9 63.9107 218.842C71.3512 231.844 77.6124 243.5 83.0531 254.475C117.356 323.666 126.942 384.469 118.422 478.824C116.128 504.216 119.16 525.553 127.434 542.243L124.931 543.484ZM124.936 543.493C117.018 527.53 113.126 506.397 115.639 478.573C124.674 378.507 112.44 320.042 80.5497 255.716C74.8236 244.166 68.4685 232.435 61.4842 220.23C57.4796 213.233 53.8104 206.374 50.4765 199.651C21.3791 140.959 18.32 93.1455 45.4689 57.5595C76.6694 16.6611 135.131 18.5734 182.046 53.0156C228.961 87.4579 271.045 118.99 342.097 104.989C413.147 90.9882 465.946 98.991 492.287 152.123C514.261 196.445 515.359 256.027 500.775 311.514C481.648 384.307 443.332 450.638 389.825 503.587C339.431 553.33 284.563 578.542 247.131 586.487C218.523 592.561 150.605 595.252 124.936 543.493Z" fill="#EF6400"/>
<path d="M140.608 512.198L143.116 510.965C152.676 530.242 169.971 542.655 194.522 547.859C219.282 553.109 242.213 549.058 248.651 547.69C261.309 545.004 281.705 538.897 306.989 525.062C331.03 511.904 353.612 494.975 374.107 474.746C421.334 428.05 455.141 369.523 471.989 305.292C485.625 253.412 482.948 202.483 464.643 165.562C443.996 123.914 403.759 111.455 334.183 125.166C270.421 137.73 231.799 109.373 190.908 79.3481L189.723 78.4785C169.523 63.648 146.705 55.639 125.474 55.9256C103.386 56.2235 84.9621 65.2263 72.1965 81.9584C60.7364 96.9807 55.3694 115.026 56.243 135.596C57.1064 155.921 64.0655 179.382 76.9285 205.328C79.8411 211.203 83.1083 217.308 86.6368 223.473C93.2548 235.037 98.8246 245.403 103.663 255.163C134.182 316.723 142.71 370.815 135.131 454.749C133.097 477.263 135.783 496.174 143.112 510.957L140.608 512.198ZM140.612 512.207C133.575 498.017 130.115 479.23 132.348 454.498C140.381 365.551 129.507 313.583 101.16 256.404C96.0697 246.137 90.419 235.71 84.2121 224.861C80.6519 218.641 77.3896 212.544 74.4251 206.569C48.5603 154.398 45.843 111.897 69.9743 80.2651C97.7098 43.9118 149.674 45.6106 191.377 76.2264C233.079 106.841 270.488 134.87 333.644 122.425C396.802 109.978 443.733 117.093 467.147 164.321C486.679 203.719 487.655 256.68 474.691 306.001C457.691 370.706 423.631 429.668 376.069 476.733C331.275 520.949 282.503 543.362 249.23 550.424C223.8 555.821 163.429 558.214 140.612 512.207Z" fill="#EF6400"/>
<path d="M156.285 480.911L158.792 479.678C177.022 516.437 225.173 517.055 250.751 511.627C264.209 508.77 311.889 495.73 360.351 447.893C401.631 407.078 431.18 355.922 445.905 299.78C457.816 254.466 455.482 209.992 439.503 177.76C421.518 141.483 386.429 130.64 325.732 142.601C269.788 153.625 235.933 128.768 200.091 102.45L199.054 101.688C181.439 88.7567 161.55 81.7732 143.048 82.0223C123.832 82.2812 107.805 90.1109 96.7018 104.664C86.7264 117.742 82.0533 133.455 82.8155 151.37C83.5673 169.105 89.6462 189.587 100.88 212.245C103.425 217.379 106.279 222.715 109.363 228.105C115.157 238.228 120.033 247.304 124.27 255.85C151.007 309.781 158.48 357.163 151.841 430.676C150.068 450.31 152.405 466.794 158.789 479.67L156.285 480.911ZM156.289 480.919C150.131 468.504 147.104 452.065 149.058 430.425C156.085 352.597 146.571 307.124 121.767 257.092C117.313 248.109 112.371 238.984 106.939 229.493C103.823 224.05 100.969 218.715 98.3761 213.487C75.7444 167.836 73.366 130.648 94.4809 102.97C118.748 71.1616 164.217 72.6487 200.709 99.4366C237.198 126.225 269.93 150.75 325.192 139.861C380.454 128.97 421.52 135.195 442.007 176.519C459.097 210.992 459.951 257.334 448.608 300.49C433.732 357.107 403.93 408.699 362.313 449.881C323.119 488.571 280.444 508.179 251.33 514.359C229.08 519.083 176.253 521.176 156.289 480.919Z" fill="#EF6400"/>
<path d="M171.963 449.626L174.469 448.391C189.987 479.679 231.038 480.192 252.849 475.562C264.36 473.119 305.133 461.967 346.595 421.039C381.927 386.106 407.219 342.322 419.822 294.269C430.008 255.52 428.017 217.501 414.363 189.959C399.041 159.053 369.099 149.826 317.28 160.037C269.155 169.52 240.069 148.162 209.273 125.552L208.386 124.898C193.356 113.866 176.395 107.907 160.622 108.12C144.277 108.341 130.649 114.997 121.209 127.37C112.716 138.502 108.739 151.884 109.386 167.144C110.03 182.29 115.226 199.791 124.829 219.163C127.008 223.557 129.45 228.124 132.09 232.735C137.06 241.419 141.244 249.206 144.879 256.539C167.832 302.838 174.247 343.509 168.551 406.603C167.038 423.357 169.027 437.414 174.466 448.385L171.963 449.626ZM171.966 449.632C166.688 438.99 164.092 424.9 165.768 406.352C171.792 339.64 163.636 300.664 142.376 257.78C138.558 250.081 134.321 242.259 129.665 234.123C126.996 229.458 124.549 224.885 122.326 220.404C102.928 181.276 100.889 149.4 118.988 125.677C139.789 98.4102 178.762 99.6855 210.039 122.648C241.316 145.608 269.372 166.63 316.739 157.295C364.107 147.962 399.306 153.297 416.866 188.718C431.516 218.266 432.247 257.987 422.524 294.978C409.774 343.507 384.23 387.729 348.558 423.027C314.963 456.19 278.383 472.999 253.43 478.294C234.358 482.342 189.078 484.138 171.966 449.632Z" fill="#EF6400"/>
<path d="M187.64 418.34L190.146 417.104C202.95 442.922 236.905 443.328 254.95 439.499C264.509 437.469 298.378 428.204 332.841 394.187C362.224 365.133 383.257 328.72 393.739 288.757C402.198 256.574 400.552 225.01 389.223 202.158C376.564 176.623 351.768 169.01 308.827 177.472C268.523 185.414 244.203 167.558 218.457 148.653L217.715 148.11C191.531 128.885 161.25 129.713 145.715 150.075C131.597 168.582 132.599 193.444 148.779 226.081C150.59 229.733 152.622 233.53 154.816 237.367C158.963 244.611 162.454 251.108 165.488 257.228C184.657 295.894 190.016 329.855 185.26 382.528C184.007 396.404 185.649 408.034 190.143 417.099L187.64 418.34ZM187.642 418.345C183.244 409.476 181.081 397.736 182.478 382.278C187.498 326.686 180.701 294.205 162.985 258.469C159.803 252.051 156.272 245.534 152.391 238.754C150.167 234.866 148.128 231.056 146.276 227.322C130.11 194.714 128.411 168.152 143.493 148.382C160.827 125.66 193.307 126.723 219.37 145.857C245.434 164.992 268.815 182.51 308.286 174.732C347.761 166.953 377.093 171.399 391.726 200.917C403.934 225.541 404.543 258.641 396.441 289.467C385.816 329.908 364.529 366.76 334.802 396.175C306.806 423.81 276.325 437.816 255.529 442.23C239.635 445.604 201.903 447.101 187.642 418.345Z" fill="#EF6400"/>
<path d="M203.317 387.053L205.822 385.816C218.461 411.3 255.479 403.767 257.049 403.433C264.658 401.819 291.625 394.44 319.084 367.335C342.519 344.162 359.295 315.119 367.656 283.246C374.389 257.627 373.087 232.519 364.083 214.356C354.087 194.193 334.438 188.195 300.374 194.908C267.89 201.309 248.339 186.953 227.639 171.754L227.047 171.319C206.355 156.129 182.457 156.744 170.221 172.781C159.068 187.4 159.89 207.097 172.73 232.998C174.174 235.91 175.794 238.938 177.544 241.997C180.866 247.803 183.664 253.01 186.096 257.915C201.484 288.953 205.785 316.201 201.97 358.454C200.977 369.45 202.272 378.655 205.82 385.812L203.317 387.053ZM203.319 387.058C199.8 379.963 198.07 370.569 199.187 358.204C203.203 313.73 197.766 287.745 183.593 259.156C181.048 254.023 178.223 248.809 175.119 243.385C173.338 240.276 171.708 237.227 170.227 234.239C157.294 208.153 155.934 186.903 168 171.087C181.868 152.91 207.85 153.76 228.701 169.068C249.552 184.375 268.256 198.389 299.835 192.167C331.412 185.944 354.879 189.501 366.586 213.115C376.352 232.813 376.84 259.294 370.359 283.955C361.858 316.308 344.828 345.789 321.047 369.322C298.65 391.429 274.264 402.635 257.628 406.166C244.913 408.865 214.727 410.062 203.319 387.058Z" fill="#EF6400"/>
</g>
</svg>
