<svg width="748" height="631" viewBox="0 0 748 631" fill="none" xmlns="http://www.w3.org/2000/svg">
<g opacity="0.15">
<path d="M66.8307 105.765L68.1626 108.799C38.7664 121.843 19.1341 146.857 9.8054 183.141C0.423205 219.637 4.9899 253.997 6.61245 263.656C9.80042 282.628 17.5731 313.303 36.5085 351.711C54.5048 388.218 78.1888 422.795 106.9 454.481C173.163 527.488 257.824 581.34 352.022 610.399C388.19 621.576 425.849 627.467 460.925 627.431C498.179 627.392 531.512 620.967 559.992 608.332C623.378 580.213 644.524 521.144 628.559 416.807C614.041 321.943 658.372 266.68 705.306 208.172L706.67 206.472C730.022 177.356 743.391 143.897 744.317 112.259C745.282 79.2645 733.013 51.1825 708.838 31.0501C687.167 13.0014 660.603 3.84689 629.888 3.83897C599.617 3.83051 564.318 12.6753 524.973 30.1297C516.076 34.0765 506.814 38.5342 497.444 43.3776C479.915 52.4388 464.226 60.0233 449.481 66.5646C356.54 107.795 276.013 116.984 152.363 100.468C118.999 96.0117 90.6737 98.8125 68.1743 108.794L66.8307 105.765ZM66.8189 105.77C88.2776 96.247 116.316 92.3113 152.801 97.1847C284.018 114.71 361.665 101.896 448.137 63.5359C463.663 56.6483 479.465 48.9408 495.922 40.4332C505.358 35.5568 514.594 31.1127 523.629 27.1009C602.528 -7.90033 665.64 -9.2355 710.956 28.5031C763.038 71.8777 757.232 148.726 709.255 208.546C661.275 268.366 617.4 321.988 631.833 416.307C646.265 510.625 632.759 579.676 561.336 611.361C501.755 637.792 423.264 635.884 351.043 613.564C256.296 584.293 171.134 530.122 104.446 456.705C41.8006 387.571 11.6988 313.925 3.34754 264.206C-3.0372 226.205 -2.75997 136.647 66.8189 105.77Z" fill="#EF6400"/>
<path d="M103.104 125.922L104.436 128.956C78.0775 140.652 60.4692 163.091 52.1006 195.644C43.6723 228.426 47.7749 259.292 49.2329 267.971C52.098 285.022 59.0854 312.595 76.1088 347.127C92.2924 379.956 113.59 411.048 139.411 439.545C199.007 505.207 275.151 553.641 359.872 579.777C392.392 589.828 426.25 595.123 457.786 595.091C491.269 595.055 521.223 589.283 546.813 577.93C603.701 552.694 622.672 499.641 608.329 405.91C595.243 320.391 635.185 270.598 677.472 217.881L678.699 216.352C699.67 190.203 711.679 160.16 712.508 131.758C713.373 102.168 702.373 76.9857 680.697 58.9339C661.254 42.7411 637.419 34.5269 609.854 34.5201C582.656 34.5125 550.934 42.4647 515.567 58.1543C507.563 61.705 499.232 65.712 490.806 70.0696C475.026 78.2261 460.899 85.0537 447.622 90.9437C363.912 128.079 291.391 136.357 180.038 121.485C150.071 117.481 124.639 119.993 104.447 128.951L103.104 125.922ZM103.092 125.927C122.406 117.356 147.639 113.815 180.476 118.2C298.569 133.972 368.454 122.439 446.278 87.9149C460.252 81.716 474.472 74.781 489.285 67.1245C497.777 62.7345 506.089 58.7349 514.223 55.1255C585.231 23.6251 642.032 22.4222 682.817 56.3884C729.69 95.4238 724.464 164.588 681.284 218.426C638.103 272.263 598.615 320.525 611.604 405.41C624.593 490.295 612.438 552.442 548.157 580.959C494.535 604.747 423.891 603.03 358.892 582.942C273.621 556.596 196.976 507.843 136.957 441.77C80.5763 379.548 53.4853 313.267 45.9677 268.518C40.2208 234.318 40.472 153.717 103.092 125.927Z" fill="#EF6400"/>
<path d="M139.375 146.08L140.708 149.113C117.386 159.463 101.804 179.324 94.3955 208.147C86.9223 237.215 90.5602 264.588 91.8549 272.284C94.3961 287.416 100.599 311.889 115.709 342.544C130.081 371.693 148.992 399.304 171.921 424.61C224.852 482.925 292.479 525.941 367.722 549.154C428.494 567.936 488.967 567.344 533.636 547.527C584.023 525.175 600.821 478.136 588.101 395.013C576.445 318.836 611.996 274.515 649.638 227.591L650.728 226.231C669.321 203.05 679.965 176.424 680.701 151.256C681.467 125.072 671.734 102.789 652.557 86.8178C635.34 72.48 614.233 65.2077 589.819 65.201C565.695 65.1947 537.548 72.2512 506.157 86.1765C499.05 89.3297 491.652 92.8912 484.169 96.7593C470.133 104.014 457.571 110.088 445.763 115.326C371.286 148.366 306.769 155.73 207.714 142.5C181.144 138.95 158.604 141.174 140.718 149.109L139.375 146.08ZM139.365 146.084C156.532 138.465 178.964 135.317 208.152 139.215C313.124 153.236 375.242 142.986 444.42 112.297C456.841 106.787 469.481 100.621 482.648 93.8165C490.197 89.9136 497.585 86.3573 504.814 83.1478C567.933 55.1469 618.423 54.08 654.676 84.2709C696.34 118.971 691.696 180.448 653.312 228.305C614.931 276.16 579.829 319.06 591.375 394.513C602.923 469.968 592.117 525.209 534.98 550.556C487.314 571.702 424.519 570.176 366.745 552.32C290.947 528.902 222.818 485.565 169.467 426.833C119.351 371.525 95.2682 312.608 88.5872 272.831C83.4804 242.431 83.7024 170.786 139.365 146.084Z" fill="#EF6400"/>
<path d="M175.647 166.237L176.982 169.27C132.509 189.006 129.338 246.021 134.473 276.598C137.177 292.687 150.211 349.835 204.431 409.672C250.695 460.644 309.805 498.242 375.572 518.531C428.654 534.937 481.462 534.425 520.457 517.125C564.347 497.655 578.969 456.633 567.872 384.118C557.646 317.281 588.809 278.431 621.804 237.3L622.758 236.11C638.971 215.897 648.252 192.687 648.893 170.754C649.56 147.975 641.095 128.592 624.416 114.7C609.428 102.22 591.049 95.8878 569.785 95.8834C548.736 95.8761 524.163 102.041 496.75 114.202C490.539 116.957 484.073 120.068 477.531 123.45C465.244 129.801 454.245 135.118 443.905 139.705C378.658 168.65 322.145 175.104 235.388 163.516C212.217 160.421 192.569 162.355 176.991 169.266L175.647 166.237ZM175.638 166.241C190.659 159.574 210.287 156.82 235.825 160.231C327.675 172.498 382.03 163.529 442.561 136.676C453.428 131.855 464.489 126.462 476.009 120.507C482.615 117.091 489.081 113.98 495.406 111.173C550.635 86.6722 594.814 85.7378 626.535 112.155C662.991 142.516 658.926 196.309 625.342 238.185C591.757 280.058 561.044 317.595 571.147 383.617C581.25 449.639 571.796 497.975 521.801 520.154C480.094 538.656 425.148 537.321 374.595 521.697C308.272 501.206 248.658 463.287 201.976 411.896C158.124 363.502 137.055 311.951 131.208 277.146C126.738 250.546 126.933 187.855 175.638 166.241Z" fill="#EF6400"/>
<path d="M211.918 186.395L213.254 189.427C175.401 206.227 172.714 254.835 177.095 280.91C179.406 294.671 190.553 343.541 236.942 394.735C276.539 438.363 327.131 470.544 383.422 487.908C428.814 501.938 473.957 501.506 507.278 486.724C544.669 470.136 557.117 435.13 547.644 373.222C538.846 315.727 565.623 282.349 593.969 247.009L594.788 245.991C608.62 228.743 616.538 208.951 617.085 190.253C617.651 170.878 610.455 154.395 596.274 142.585C583.516 131.959 567.864 126.57 549.752 126.564C531.776 126.56 510.778 131.829 487.341 142.226C482.025 144.584 476.491 147.246 470.894 150.14C460.355 155.588 450.917 160.15 442.045 164.086C386.031 188.935 337.522 194.476 263.062 184.532C243.29 181.89 226.535 183.536 213.262 189.424L211.918 186.395ZM211.911 186.398C224.786 180.685 241.61 178.322 263.5 181.247C342.23 191.762 388.82 184.073 440.701 161.057C450.017 156.925 459.498 152.301 469.373 147.197C475.035 144.271 480.576 141.604 485.997 139.197C533.336 118.196 571.204 117.396 598.393 140.039C629.643 166.064 626.159 212.171 597.37 248.063C568.585 283.956 542.259 316.13 550.919 372.72C559.578 429.311 551.475 470.742 508.622 489.752C472.873 505.611 425.777 504.467 382.445 491.074C325.597 473.511 274.5 441.009 234.487 396.96C196.9 355.48 178.838 311.291 173.828 281.46C169.998 258.659 170.164 204.925 211.911 186.398Z" fill="#EF6400"/>
<path d="M248.19 206.553L249.527 209.584C218.291 223.446 216.09 263.653 219.713 285.226C221.634 296.653 230.895 337.248 269.452 379.8C302.384 416.082 344.459 442.845 391.274 457.287C428.973 468.938 466.452 468.586 494.099 456.322C524.992 442.617 535.267 413.626 527.417 362.324C520.047 314.173 542.434 286.264 566.136 256.719L566.816 255.869C590.918 225.821 591.471 189.904 568.134 170.468C546.924 152.805 517.418 152.733 477.933 170.249C473.514 172.21 468.912 174.424 464.256 176.83C455.464 181.376 447.589 185.183 440.185 188.467C393.406 209.22 352.9 213.849 290.738 205.547C274.362 203.36 260.5 204.716 249.533 209.581L248.19 206.553ZM248.184 206.555C258.914 201.794 272.932 199.825 291.174 202.263C356.782 211.026 395.607 204.618 438.842 185.439C446.606 181.994 454.506 178.141 462.736 173.886C467.454 171.448 472.072 169.226 476.589 167.22C516.039 149.72 547.594 149.052 570.252 167.922C596.294 189.609 593.39 228.034 569.402 257.943C545.412 287.853 523.474 314.665 530.69 361.822C537.906 408.983 531.154 443.508 495.443 459.35C465.652 472.566 426.406 471.612 390.295 460.452C342.922 445.816 300.34 418.731 266.997 382.023C235.675 347.455 220.625 310.634 216.448 285.773C213.256 266.773 213.394 221.994 248.184 206.555Z" fill="#EF6400"/>
<path d="M284.462 226.71L285.802 229.74C254.969 243.424 262.019 287.662 262.336 289.539C263.862 298.635 271.238 330.957 301.96 364.861C328.227 393.799 361.785 415.145 399.124 426.664C429.134 435.939 458.947 435.667 480.92 425.92C505.314 415.098 513.415 392.123 507.187 351.427C501.249 312.618 519.247 290.182 538.301 266.428L538.847 265.749C557.891 242.003 558.373 213.66 539.993 198.351C523.238 184.397 499.861 184.373 468.525 198.275C465.002 199.837 461.332 201.604 457.62 203.521C450.573 207.164 444.262 210.215 438.328 212.848C400.777 229.506 368.278 233.222 318.412 226.562C305.435 224.829 294.465 225.897 285.806 229.738L284.462 226.71ZM284.456 226.712C293.041 222.902 304.257 221.328 318.85 223.278C371.336 230.288 402.396 225.163 436.984 209.819C443.195 207.064 449.515 203.982 456.098 200.578C459.871 198.627 463.566 196.849 467.181 195.246C498.741 181.245 523.986 180.71 542.112 195.806C562.944 213.156 560.622 243.894 541.431 267.823C522.24 291.75 504.69 313.2 510.462 350.927C516.235 388.653 510.833 416.275 482.264 428.948C458.432 439.521 427.035 438.758 398.147 429.83C360.248 418.121 326.183 396.452 299.507 367.086C274.45 339.433 262.409 309.974 259.068 290.086C256.515 274.885 256.625 239.062 284.456 226.712Z" fill="#EF6400"/>
</g>
</svg>
