<svg width="879" height="275" viewBox="0 0 879 275" fill="none" xmlns="http://www.w3.org/2000/svg">
<g opacity="0.2">
<path d="M818.977 39.7991L816.898 36.4279C849.538 16.1221 868.639 -16.7376 873.678 -61.2336C878.746 -105.989 867.654 -145.909 864.135 -157.074C857.222 -179.005 842.945 -214.031 814.174 -256.364C786.829 -296.603 753.071 -333.616 713.84 -366.373C623.318 -441.833 514.187 -491.573 397.869 -510.386C353.205 -517.632 307.649 -518.373 266.134 -512.526C222.039 -506.316 183.644 -493.194 152.02 -473.525C81.6384 -429.75 66.3803 -356.326 102.545 -235.456C135.428 -125.56 92.0938 -52.8043 46.2164 24.2221L44.8835 26.4613C22.0569 64.7918 11.768 106.612 15.9066 144.218C20.2248 183.436 39.3948 214.649 71.3447 234.481C99.9851 252.26 132.945 258.702 169.306 253.628C205.142 248.629 245.464 232.318 289.153 205.145C299.031 199.001 309.258 192.191 319.549 184.907C338.8 171.28 356.117 159.706 372.49 149.522C475.689 85.3351 569.495 61.1328 718.602 60.223C758.835 59.9771 791.902 51.9746 816.885 36.4361L818.977 39.7991ZM818.99 39.791C795.163 54.6151 762.623 63.9137 718.626 64.182C560.395 65.1484 470.597 93.166 374.581 152.885C357.342 163.608 339.911 175.347 321.838 188.141C311.474 195.475 301.276 202.264 291.244 208.508C203.637 262.998 129.147 275.022 69.2582 237.846C0.427581 195.118 -5.41531 103.186 41.4802 24.4332C88.3785 -54.3195 131.445 -125.057 98.7514 -234.322C66.0593 -343.585 70.6216 -427.561 149.928 -476.888C216.085 -518.036 309.317 -528.765 398.504 -514.294C515.508 -495.321 625.285 -445.287 716.376 -369.413C801.975 -297.939 849.796 -215.739 867.909 -158.265C881.755 -114.337 896.247 -8.27429 818.99 39.791Z" fill="#FFFFB0"/>
<path d="M772.702 21.9399L770.623 18.5687C799.89 0.361001 817.021 -29.1146 821.541 -69.0358C826.094 -109.237 816.13 -145.096 812.968 -155.129C806.755 -174.84 793.92 -206.325 768.054 -244.386C743.464 -280.57 713.108 -313.852 677.826 -343.313C596.411 -411.181 498.259 -455.916 393.644 -472.836C353.484 -479.354 312.527 -480.019 275.2 -474.763C235.57 -469.18 201.067 -457.39 172.651 -439.716C109.485 -400.428 95.8063 -334.487 128.295 -225.903C157.937 -126.832 118.895 -61.2798 77.5597 8.12351L76.3596 10.1361C55.8617 44.5614 46.6171 82.1127 50.3351 115.872C54.2073 151.043 71.3957 179.033 100.043 196.816C125.738 212.767 155.313 218.547 187.946 213.994C220.143 209.502 256.38 194.839 295.65 170.414C304.538 164.886 313.736 158.764 322.99 152.211C340.32 139.945 355.913 129.525 370.656 120.355C463.605 62.5433 548.084 40.7441 682.363 39.9227C718.499 39.7039 748.19 32.5216 770.61 18.5768L772.702 21.9399ZM772.715 21.9317C751.27 35.2744 721.985 43.6417 682.388 43.8836C539.982 44.7544 459.162 69.971 372.748 123.718C357.232 133.369 341.546 143.931 325.277 155.446C315.951 162.048 306.773 168.158 297.742 173.777C218.897 222.816 151.856 233.639 97.9551 200.18C36.0077 161.727 30.7495 78.9872 72.9568 8.10954C115.165 -62.7675 153.924 -126.433 124.501 -224.77C95.0785 -323.105 99.1835 -398.685 170.56 -443.079C230.101 -480.112 314.011 -489.77 394.279 -476.746C499.581 -459.668 598.379 -414.637 680.363 -346.353C757.401 -282.026 800.438 -208.047 816.742 -156.318C829.205 -116.783 842.245 -21.3275 772.715 21.9317Z" fill="#FFFFB0"/>
<path d="M726.43 4.07924L724.349 0.709229C750.244 -15.4015 765.404 -41.4916 769.404 -76.838C773.441 -112.485 764.605 -144.286 761.799 -153.183C756.287 -170.674 744.894 -198.619 721.934 -232.408C700.098 -264.536 673.142 -294.092 641.813 -320.253C569.504 -380.528 482.331 -420.258 389.419 -435.287C314.369 -447.465 242.881 -436.756 193.281 -405.907C137.333 -371.108 125.231 -312.645 154.044 -216.351C180.448 -128.103 145.696 -69.7539 108.902 -7.97724L107.836 -6.18676C89.662 24.3311 81.4678 57.6125 84.7616 87.527C88.188 118.65 103.397 143.418 128.74 159.151C151.494 173.275 177.683 178.391 206.586 174.359C235.144 170.374 267.297 157.363 302.152 135.685C310.044 130.776 318.212 125.336 326.43 119.518C341.845 108.608 355.711 99.3387 368.822 91.184C451.519 39.7483 526.675 20.3551 646.124 19.6252C678.164 19.4307 704.478 13.0684 724.338 0.71616L726.43 4.07924ZM726.441 4.07231C707.38 15.9324 681.345 23.3706 646.148 23.5861C519.564 24.3585 447.726 46.7719 370.913 94.5471C357.121 103.126 343.179 112.517 328.718 122.75C320.427 128.62 312.269 134.052 304.243 139.048C234.158 182.639 174.565 192.257 126.654 162.516C71.5906 128.333 66.9153 54.7895 104.434 -8.21352C141.951 -71.2155 176.404 -127.807 150.251 -215.217C124.095 -302.628 127.746 -369.809 191.19 -409.27C244.117 -442.189 318.704 -450.774 390.051 -439.196C483.654 -424.017 571.475 -383.989 644.349 -323.291C712.827 -266.112 751.086 -200.352 765.577 -154.371C776.652 -119.228 788.245 -34.3797 726.441 4.07231Z" fill="#FFFFB0"/>
<path d="M680.155 -13.7802L678.073 -17.1494C727.453 -47.8716 721.774 -115.89 710.634 -151.237C704.771 -169.836 679.885 -235.329 605.799 -297.191C542.598 -349.875 466.404 -384.602 385.192 -397.737C319.64 -408.375 257.212 -399.029 213.913 -372.098C165.179 -341.787 154.657 -290.806 179.793 -206.8C202.959 -129.372 172.497 -78.2263 140.245 -24.0765L139.312 -22.5095C123.464 4.10129 116.319 33.1123 119.188 59.1823C122.169 86.258 135.396 107.803 157.439 121.488C177.247 133.781 200.052 138.236 225.224 134.722C250.143 131.248 278.212 119.884 308.651 100.952C315.547 96.6628 322.687 91.91 329.871 86.8243C343.365 77.2724 355.506 69.1583 366.987 62.0174C439.436 16.9566 505.267 -0.0351282 609.886 -0.673353C637.827 -0.844357 660.766 -6.38504 678.063 -17.1433L680.155 -13.7802ZM680.165 -13.7864C663.488 -3.4089 640.707 3.09882 609.911 3.28709C499.151 3.96447 436.291 23.5767 369.079 65.3805C357.013 72.8857 344.811 81.1009 332.159 90.0562C324.905 95.1926 317.766 99.9455 310.743 104.315C249.418 142.458 197.275 150.874 155.352 124.851C107.172 94.9431 103.083 30.5911 135.91 -24.5385C168.738 -79.6643 198.884 -129.182 176 -205.666C153.114 -282.149 156.308 -340.934 211.821 -375.461C258.131 -404.265 323.396 -411.776 385.825 -401.647C467.728 -388.365 544.572 -353.341 608.337 -300.23C668.256 -250.199 701.728 -192.659 714.409 -152.425C724.102 -121.677 734.245 -47.4317 680.165 -13.7864Z" fill="#FFFFB0"/>
<path d="M633.883 -31.6409L631.799 -35.0091C673.83 -61.1599 668.967 -119.146 659.466 -149.289C654.453 -165.196 633.171 -221.203 569.785 -274.129C515.692 -319.223 450.476 -348.946 380.967 -360.187C324.911 -369.285 271.544 -361.302 234.545 -338.29C193.027 -312.467 184.083 -268.967 205.542 -197.249C225.471 -130.644 199.296 -86.7007 171.588 -40.1752L170.787 -38.8346C157.268 -16.1283 151.169 8.6121 153.616 30.8365C156.152 53.8665 167.398 72.1875 186.139 83.8218C203.001 94.2884 222.421 98.0783 243.862 95.0886C265.143 92.1191 289.128 82.407 315.151 66.2212C321.054 62.5499 327.165 58.4829 333.312 54.1312C344.886 45.9369 355.304 38.9748 365.155 32.8477C427.351 -5.83681 483.858 -20.4225 573.648 -20.9724C597.491 -21.1175 617.053 -25.8375 631.791 -35.0039L633.883 -31.6409ZM633.891 -31.646C619.595 -22.7523 600.07 -17.1716 573.673 -17.0114C478.734 -16.4317 424.855 0.37998 367.246 36.2108C356.903 42.6441 346.444 49.6865 335.599 57.3632C329.381 61.7639 323.262 65.8376 317.243 69.5843C264.679 102.278 219.985 109.491 184.052 87.1854C142.752 61.5494 139.248 6.39155 167.387 -40.8602C195.524 -88.1123 221.364 -130.556 201.748 -196.113C182.133 -261.672 184.87 -312.057 232.453 -341.653C272.148 -366.342 328.088 -372.78 381.599 -364.097C451.801 -352.713 517.667 -322.693 572.323 -277.169C623.682 -234.285 652.375 -184.965 663.242 -150.48C671.549 -124.123 680.244 -60.4855 633.891 -31.646Z" fill="#FFFFB0"/>
<path d="M587.61 -49.5012L585.525 -52.8683C620.207 -74.4469 616.16 -122.408 608.301 -147.345C604.137 -160.555 586.456 -207.078 533.772 -251.069C488.784 -288.57 434.547 -313.289 376.74 -322.639C330.184 -330.193 285.876 -323.575 255.177 -304.481C220.874 -283.146 213.508 -247.127 231.29 -187.696C247.981 -131.915 226.099 -95.1728 202.93 -56.2759L202.265 -55.1562C178.706 -15.5977 183.995 27.0114 214.837 46.1569C242.868 63.557 277.808 58.7601 321.651 31.4905C326.558 28.4386 331.639 25.0554 336.753 21.4372C346.409 14.6005 355.1 8.79137 363.322 3.67803C415.265 -28.6292 462.448 -40.8115 537.409 -41.2698C557.156 -41.3907 573.341 -45.2905 585.518 -52.8642L587.61 -49.5012ZM587.616 -49.5053C575.702 -42.0933 559.433 -37.4435 537.435 -37.3102C458.32 -36.8271 413.42 -22.8178 365.413 7.0411C356.792 12.4036 348.078 18.2721 339.04 24.6702C333.858 28.3372 328.759 31.7317 323.743 34.8536C279.939 62.0987 242.695 68.1102 212.751 49.5223C178.334 28.159 175.414 -17.8089 198.862 -57.1842C222.31 -96.5603 243.844 -131.931 227.498 -186.56C211.152 -241.194 213.432 -283.181 253.085 -307.844C286.164 -328.419 332.781 -333.783 377.374 -326.547C435.876 -317.061 490.765 -292.044 536.31 -254.107C579.109 -218.37 603.018 -177.272 612.076 -148.533C618.998 -126.569 626.245 -73.5383 587.616 -49.5053Z" fill="#FFFFB0"/>
<path d="M541.335 -67.3606L539.249 -70.7267C573.483 -92.0266 557.817 -143.228 557.132 -145.398C553.82 -155.914 539.74 -192.954 497.761 -228.006C461.879 -257.916 418.621 -277.632 372.514 -285.089C335.454 -291.102 300.207 -285.848 275.809 -270.673C248.722 -253.826 242.934 -225.288 257.04 -178.143C270.492 -133.185 252.898 -103.647 234.273 -72.3752L233.739 -71.4802C215.125 -40.2193 219.245 -6.58703 243.536 8.4935C265.679 22.2389 293.357 18.3991 328.151 -3.24216C332.063 -5.67517 336.115 -8.37311 340.192 -11.2575C347.931 -16.7359 354.897 -21.3919 361.486 -25.4902C403.182 -51.4235 441.038 -61.2005 501.171 -61.5685C516.819 -61.6637 529.629 -64.7437 539.244 -70.7237L541.335 -67.3606ZM541.342 -67.3647C531.81 -61.4341 518.793 -57.7149 501.196 -57.6079C437.904 -57.2216 401.983 -46.0142 363.578 -22.1271C356.682 -17.8379 349.71 -13.1439 342.48 -8.02556C338.336 -5.09065 334.257 -2.37517 330.243 0.120912C295.199 21.9172 265.404 26.7277 241.448 11.8575C213.917 -5.23398 211.58 -42.0063 230.338 -73.5078C249.097 -105.009 266.323 -133.304 253.247 -177.009C240.17 -220.713 241.994 -254.305 273.717 -274.036C300.179 -290.495 337.472 -294.788 373.146 -288.999C419.948 -281.409 463.859 -261.395 500.297 -231.046C534.535 -202.457 553.663 -169.576 560.91 -146.586C566.447 -129.015 572.245 -86.5901 541.342 -67.3647Z" fill="#FFFFB0"/>
</g>
</svg>
