<svg width="741" height="768" viewBox="0 0 741 768" fill="none" xmlns="http://www.w3.org/2000/svg">
<g opacity="0.1">
<path d="M368.358 740.455L370.713 737.804C396.534 760.565 429.634 768.482 469.091 761.342C508.777 754.16 540.154 734.365 548.823 728.471C565.85 716.894 592.21 695.628 621.103 660.051C648.568 626.236 671.613 587.752 689.6 545.671C730.996 448.606 745.542 342.205 731.715 237.608C726.424 197.438 715.326 158.18 699.618 124.084C682.935 87.8684 661.792 58.3217 636.778 36.2681C581.109 -12.8136 514.212 -6.98624 419.872 55.1608C334.098 111.668 260.543 93.2454 182.67 73.7424L180.407 73.1761C141.656 63.4737 103.142 65.4221 71.9577 78.6578C39.4375 92.4626 17.6079 116.942 8.83013 149.45C0.959855 178.591 3.92562 208.515 17.6422 238.391C31.1599 267.836 55.5341 298.214 90.0899 328.68C97.9037 335.569 106.378 342.586 115.275 349.535C131.92 362.534 146.306 374.403 159.257 385.821C240.884 457.789 285.801 532 324.988 659.637C335.562 694.077 350.942 720.373 370.703 737.795L368.358 740.455ZM368.368 740.464C349.518 723.849 333.162 698.339 321.6 660.678C280.014 525.231 232.857 455.439 156.911 388.481C143.275 376.459 128.719 364.534 113.091 352.33C104.132 345.332 95.6834 338.335 87.7446 331.34C18.4499 270.246 -11.0484 209.462 5.4064 148.527C24.3195 78.4942 101.653 49.8038 181.269 69.7352C260.886 89.669 332.641 108.381 417.923 52.2C503.204 -3.97976 576.395 -21.6977 639.123 33.608C691.452 79.7442 724.668 156.934 735.23 237.146C749.097 342.372 734.465 449.402 692.86 547.063C653.614 638.881 595.44 701.064 550.816 731.401C516.712 754.59 429.487 794.337 368.368 740.464Z" fill="#EF6400"/>
<path d="M371.754 696.171L374.11 693.52C397.263 713.928 426.953 721.028 462.352 714.621C498.001 708.17 526.186 690.389 533.975 685.093C549.279 674.687 572.973 655.571 598.951 623.585C623.648 593.177 644.371 558.572 660.548 520.726C697.779 433.426 710.861 337.73 698.425 243.657C693.67 207.537 683.691 172.242 669.568 141.586C654.573 109.038 635.575 82.4856 613.099 62.6697C563.137 18.6193 503.063 23.874 418.313 79.7043C340.987 130.643 274.715 114.046 204.549 96.475L202.514 95.9643C167.712 87.253 133.128 88.9974 105.135 100.881C75.9703 113.261 56.3936 135.212 48.5226 164.359C41.4617 190.504 44.1228 217.355 56.4331 244.167C68.5782 270.622 90.4866 297.92 121.548 325.307C128.578 331.504 136.197 337.816 144.2 344.064C159.184 355.766 172.136 366.454 183.797 376.736C257.317 441.555 297.771 508.388 333.063 623.331C342.559 654.264 356.366 677.876 374.099 693.511L371.754 696.171ZM371.764 696.18C354.798 681.226 340.079 658.267 329.673 624.372C292.245 502.472 249.803 439.658 181.452 379.396C169.179 368.575 156.081 357.844 142.015 346.858C133.952 340.561 126.348 334.264 119.203 327.967C56.8393 272.983 30.2895 218.278 45.1 163.435C62.12 100.406 131.721 74.5847 203.376 92.5241C275.03 110.464 339.611 127.304 416.364 76.7427C493.115 26.1814 558.988 10.2341 615.445 60.0096C662.539 101.532 692.435 171.004 701.941 243.194C714.419 337.898 701.25 434.223 663.808 522.119C628.486 604.754 576.129 660.717 535.967 688.024C505.273 708.894 426.772 744.664 371.764 696.18Z" fill="#EF6400"/>
<path d="M375.152 651.888L377.506 649.236C397.992 667.293 424.271 673.573 455.614 667.9C487.224 662.18 512.219 646.411 519.126 641.713C532.707 632.48 553.737 615.512 576.8 587.119C598.727 560.118 617.13 529.388 631.496 495.782C664.561 418.246 676.179 333.255 665.135 249.705C656.247 182.207 628.65 123.659 589.419 89.07C545.165 50.0533 491.912 54.7342 416.754 104.247C347.875 149.621 288.885 134.848 226.43 119.206L224.62 118.753C193.767 111.028 163.115 112.574 138.31 123.104C112.502 134.059 95.1794 153.481 88.215 179.268C81.9636 202.419 84.3219 226.196 95.2241 249.943C105.997 273.408 125.437 297.63 153.006 321.936C159.248 327.44 166.018 333.044 173.123 338.593C186.451 349.002 197.971 358.506 208.341 367.649C273.752 425.32 309.742 484.776 341.135 587.024C349.555 614.451 361.789 635.379 377.497 649.228L375.152 651.888ZM375.161 651.896C360.08 638.604 346.996 618.194 337.745 588.066C304.477 479.709 266.752 423.875 205.996 370.309C195.087 360.691 183.442 351.153 170.941 341.387C163.772 335.789 157.012 330.192 150.661 324.597C95.2252 275.721 71.6275 227.093 84.7913 178.345C99.9226 122.319 161.788 99.3668 225.482 115.314C289.174 131.259 346.58 146.229 414.804 101.286C483.029 56.3395 541.582 42.1663 591.764 86.41C633.627 123.32 660.202 185.072 668.651 249.24C679.743 333.421 668.037 419.045 634.755 497.175C603.358 570.628 556.818 620.376 521.118 644.646C493.834 663.197 424.056 694.993 375.161 651.896Z" fill="#EF6400"/>
<path d="M378.549 607.604L380.902 604.951C419.968 639.385 476.835 616.994 504.279 598.337C518.718 588.518 568.474 550.306 602.442 470.838C631.344 403.068 641.499 328.78 631.844 255.753C624.082 196.797 599.988 145.667 565.74 115.472C527.193 81.4862 480.763 85.5942 415.195 128.788C354.762 168.598 303.054 155.649 248.309 141.938L246.725 141.541C219.823 134.806 193.103 136.15 171.485 145.326C149.033 154.856 133.964 171.75 127.906 194.178C122.465 214.332 124.519 235.035 134.016 255.718C143.414 276.193 160.389 297.337 184.466 318.564C189.92 323.373 195.835 328.272 202.047 333.123C213.714 342.234 223.8 350.557 232.881 358.563C290.185 409.086 321.714 461.165 349.209 550.719C356.552 574.637 367.213 592.882 380.894 604.944L378.549 607.604ZM378.556 607.611C365.361 595.982 353.913 578.122 345.819 551.761C316.709 456.95 283.698 408.094 230.536 361.223C220.992 352.808 210.804 344.461 199.865 335.918C193.592 331.019 187.677 326.121 182.12 321.224C133.614 278.458 112.966 235.909 124.484 193.254C137.722 144.233 191.856 124.15 247.589 138.102C303.319 152.055 353.549 165.153 413.246 125.828C472.941 86.5011 524.176 74.0985 568.085 112.812C604.714 145.106 627.967 199.141 635.36 255.288C645.067 328.947 634.824 403.868 605.702 472.232C578.23 536.504 537.508 580.029 506.27 601.268C482.398 617.501 421.34 645.322 378.556 607.611Z" fill="#EF6400"/>
<path d="M381.947 563.322L384.299 560.667C417.551 589.976 466.026 570.869 489.428 554.958C501.779 546.562 544.327 513.884 573.388 445.894C598.127 387.889 606.819 324.306 598.554 261.801C591.918 211.386 571.326 167.675 542.061 141.873C509.222 112.92 469.614 116.455 413.637 153.33C361.651 187.577 317.225 176.449 270.189 164.671L268.833 164.329C245.878 158.584 223.09 159.727 204.662 167.55C185.565 175.656 172.75 190.019 167.6 209.088C162.967 226.244 164.719 243.875 172.806 261.492C180.834 278.977 195.341 297.045 215.924 315.192C220.593 319.309 225.655 323.501 230.97 327.652C240.979 335.468 249.633 342.608 257.424 349.478C306.62 392.852 333.683 437.554 357.283 514.414C363.549 534.824 372.635 550.384 384.292 560.662L381.947 563.322ZM381.953 563.327C370.644 553.359 360.829 538.052 353.892 515.455C328.941 434.188 300.645 392.312 255.079 352.138C246.898 344.925 238.165 337.77 228.788 330.447C223.412 326.247 218.343 322.049 213.579 317.853C172.003 281.196 154.304 244.725 164.178 208.165C175.525 166.144 221.924 148.931 269.694 160.892C317.464 172.85 360.518 184.077 411.685 150.369C462.855 116.661 506.769 106.03 544.406 139.213C575.803 166.895 595.733 213.21 602.07 261.336C610.39 324.472 601.611 388.69 576.649 447.286C553.102 502.377 518.197 539.687 491.423 557.889C470.959 571.802 418.625 595.65 381.953 563.327Z" fill="#EF6400"/>
<path d="M385.344 519.039L387.695 516.383C415.134 540.568 455.221 524.743 474.582 511.581C484.838 504.607 520.181 477.461 544.337 420.95C564.909 372.709 572.137 319.83 565.265 267.847C559.752 225.977 542.664 189.683 518.382 168.275C491.249 144.353 458.463 147.314 412.077 177.872C368.539 206.554 331.394 197.252 292.069 187.402L290.938 187.12C250.945 177.106 215.767 192.616 207.292 223.997C199.591 252.518 212.704 281.246 247.383 311.821C251.264 315.243 255.474 318.728 259.894 322.182C268.244 328.702 275.465 334.659 281.968 340.392C323.053 376.616 345.654 413.941 365.355 478.108C370.545 495.011 378.058 507.887 387.69 516.379L385.344 519.039ZM385.35 519.043C375.925 510.735 367.746 497.981 361.966 479.15C341.173 411.427 317.594 376.531 279.622 343.052C272.803 337.04 265.525 331.079 257.711 324.976C253.231 321.477 249.007 317.978 245.038 314.481C210.39 283.933 195.641 253.542 203.869 223.075C213.325 188.057 251.993 173.713 291.8 183.679C331.608 193.645 367.487 203.002 410.126 174.912C452.768 146.822 489.363 137.962 520.727 165.615C546.891 188.683 563.499 227.279 568.78 267.385C575.714 319.998 568.398 373.513 547.596 422.344C527.973 468.251 498.886 499.341 476.574 514.512C459.521 526.106 415.91 545.98 385.35 519.043Z" fill="#EF6400"/>
<path d="M388.741 474.755L391.09 472.098C418.174 495.97 458.048 469.347 459.733 468.201C467.897 462.652 496.036 441.036 515.283 396.008C531.691 357.532 537.456 315.356 531.975 273.896C527.586 240.565 514.001 211.691 494.703 194.677C473.278 175.787 447.314 178.174 410.517 202.415C375.427 225.531 345.564 218.052 313.949 210.134L313.044 209.907C281.441 201.996 253.66 214.191 246.984 238.907C240.899 261.437 251.322 284.184 278.843 308.449C281.937 311.177 285.294 313.957 288.818 316.71C295.51 321.936 301.297 326.71 306.509 331.305C339.488 360.382 357.624 390.329 373.428 441.802C377.541 455.198 383.482 465.39 391.086 472.095L388.741 474.755ZM388.746 474.759C381.205 468.113 374.663 457.908 370.038 442.844C353.404 388.666 334.541 360.748 304.163 333.965C298.709 329.156 292.888 324.386 286.636 319.505C283.052 316.707 279.672 313.908 276.498 311.109C248.779 286.67 236.979 262.358 243.561 237.984C251.127 209.971 282.06 198.495 313.907 206.468C345.753 214.441 374.455 221.925 408.568 199.454C442.679 176.982 471.957 169.894 497.048 192.017C517.979 210.47 531.266 241.346 535.491 273.431C541.037 315.522 535.184 358.334 518.542 397.399C502.844 434.125 479.574 458.998 461.725 471.134C448.082 480.409 413.193 496.309 388.746 474.759Z" fill="#EF6400"/>
</g>
</svg>
