<svg width="631" height="533" viewBox="0 0 631 533" fill="none" xmlns="http://www.w3.org/2000/svg">
<g opacity="0.1">
<path d="M574.817 443.666L573.693 441.107C598.483 430.107 615.039 409.013 622.906 378.414C630.818 347.637 626.967 318.661 625.599 310.515C622.91 294.516 616.356 268.648 600.387 236.259C585.211 205.472 565.238 176.313 541.026 149.592C485.146 88.0255 413.751 42.6118 334.314 18.1056C303.813 8.68024 272.055 3.71261 242.476 3.74312C211.059 3.77531 182.949 9.19421 158.931 19.849C105.478 43.5617 87.6456 93.3747 101.109 181.362C113.352 261.362 75.9669 307.966 36.3877 357.305L35.2377 358.74C15.5443 383.293 4.27051 411.509 3.4893 438.189C2.67602 466.014 13.022 489.695 33.4094 506.673C51.6847 521.894 74.0856 529.614 99.9879 529.62C125.516 529.628 155.283 522.169 188.463 507.449C195.966 504.121 203.777 500.362 211.679 496.277C226.461 488.636 239.691 482.24 252.126 476.724C330.504 441.954 398.412 434.205 502.687 448.133C530.823 451.891 554.71 449.529 573.683 441.112L574.817 443.666ZM574.826 443.662C556.73 451.692 533.085 455.011 502.317 450.902C391.662 436.122 326.181 446.928 253.259 479.278C240.166 485.086 226.84 491.586 212.962 498.76C205.004 502.873 197.216 506.62 189.596 510.004C123.06 539.52 69.8379 540.646 31.6227 508.821C-12.2979 472.243 -7.40139 407.437 33.0578 356.99C73.5189 306.544 110.52 261.324 98.3479 181.784C86.1769 102.246 97.5668 44.0146 157.798 17.2948C208.043 -4.99499 274.235 -3.38577 335.139 15.4369C415.04 40.1214 486.857 85.8041 543.095 147.716C595.925 206.018 621.309 268.124 628.352 310.052C633.736 342.098 633.503 417.623 574.826 443.662Z" fill="#EF6400"/>
<path d="M544.227 426.667L543.104 424.109C565.332 414.245 580.181 395.323 587.238 367.87C594.346 340.225 590.886 314.196 589.657 306.877C587.241 292.498 581.348 269.245 566.992 240.124C553.345 212.44 535.384 186.219 513.61 162.188C463.351 106.815 399.139 65.9704 327.694 43.9299C300.269 35.4534 271.716 30.9879 245.122 31.0152C216.886 31.0452 191.626 35.9134 170.045 45.487C122.072 66.7691 106.073 111.508 118.169 190.552C129.204 262.671 95.5213 304.661 59.8606 349.118L58.8255 350.407C41.1407 372.459 31.0135 397.794 30.3141 421.746C29.5845 446.699 38.8607 467.935 57.1402 483.159C73.5366 496.814 93.6368 503.741 116.883 503.747C139.819 503.753 166.57 497.047 196.396 483.816C203.145 480.822 210.171 477.443 217.276 473.768C230.584 466.889 242.497 461.132 253.694 456.165C324.287 424.848 385.444 417.868 479.349 430.409C504.619 433.786 526.067 431.667 543.094 424.113L544.227 426.667ZM544.237 426.663C527.95 433.891 506.67 436.878 478.979 433.179C379.391 419.878 320.456 429.604 254.827 458.719C243.043 463.946 231.051 469.795 218.559 476.251C211.398 479.954 204.388 483.327 197.529 486.37C137.648 512.935 89.7472 513.949 55.3531 485.305C15.8244 452.387 20.2316 394.061 56.6458 348.659C93.0603 303.257 126.361 262.558 115.407 190.974C104.453 119.39 114.703 66.9809 168.912 42.9328C214.132 22.8724 273.706 24.32 328.52 41.2602C400.429 63.478 465.064 104.592 515.679 160.312C563.225 212.783 586.071 268.678 592.41 306.415C597.257 335.256 597.045 403.228 544.237 426.663Z" fill="#EF6400"/>
<path d="M513.64 409.668L512.515 407.11C532.183 398.382 545.323 381.633 551.571 357.326C557.873 332.813 554.805 309.73 553.714 303.239C551.571 290.479 546.34 269.84 533.597 243.989C521.478 219.407 505.529 196.123 486.194 174.783C441.557 125.605 384.527 89.3298 321.074 69.7542C269.824 53.9148 218.827 54.4147 181.158 71.1258C138.666 89.9759 124.5 129.644 135.227 199.742C145.057 263.982 115.076 301.358 83.3328 340.929L82.4134 342.076C66.7338 361.625 57.7577 384.079 57.1373 405.303C56.4916 427.384 64.6994 446.176 80.8711 459.644C95.3903 471.735 113.19 477.868 133.778 477.874C154.122 477.879 177.859 471.928 204.33 460.185C210.324 457.526 216.563 454.522 222.873 451.26C234.71 445.142 245.304 440.02 255.261 435.603C318.068 407.74 372.476 401.53 456.009 412.687C478.416 415.681 497.424 413.805 512.507 407.114L513.64 409.668ZM513.648 409.664C499.171 416.09 480.254 418.744 455.64 415.457C367.117 403.633 314.732 412.277 256.394 438.157C245.919 442.804 235.26 448.004 224.156 453.742C217.79 457.033 211.559 460.032 205.464 462.739C152.235 486.352 109.657 487.252 79.0845 461.792C43.9487 432.529 47.8651 380.685 80.234 340.328C112.602 299.971 142.203 263.793 132.466 200.164C122.728 136.532 131.84 89.947 180.025 68.5716C220.221 50.7394 273.176 52.0261 321.898 67.0841C385.818 86.8328 443.272 123.379 488.263 172.908C530.526 219.549 550.835 269.234 556.469 302.778C560.776 328.415 560.589 388.833 513.648 409.664Z" fill="#EF6400"/>
<path d="M483.051 392.67L481.925 390.112C519.429 373.469 522.104 325.388 517.773 299.602C515.493 286.033 504.501 237.84 458.777 187.38C419.763 144.395 369.915 112.688 314.453 95.5786C269.689 81.7429 225.156 82.1755 192.272 96.7638C155.259 113.183 142.928 147.777 152.286 208.93C160.91 265.294 134.63 298.056 106.805 332.741L106 333.745C92.3284 350.791 84.5019 370.364 83.9606 388.86C83.3987 408.07 90.5368 424.416 104.603 436.131C117.242 446.656 132.741 451.995 150.673 451.999C168.424 452.005 189.146 446.807 212.264 436.551C217.502 434.228 222.955 431.604 228.471 428.752C238.833 423.396 248.109 418.912 256.828 415.044C311.851 390.635 359.509 385.192 432.671 394.964C452.212 397.574 468.781 395.943 481.918 390.115L483.051 392.67ZM483.059 392.666C470.392 398.288 453.839 400.611 432.303 397.734C354.845 387.389 309.007 394.953 257.961 417.598C248.797 421.664 239.469 426.212 229.754 431.234C224.184 434.114 218.731 436.738 213.397 439.105C166.822 459.767 129.566 460.555 102.815 438.277C72.0721 412.674 75.4997 367.31 103.822 331.995C132.144 296.684 158.044 265.029 149.525 209.352C141.004 153.676 148.978 112.913 191.139 94.2096C226.31 78.607 272.646 79.733 315.278 92.9085C371.208 110.188 421.481 142.166 460.848 185.505C497.828 226.315 515.596 269.789 520.527 299.14C524.297 321.572 524.132 374.439 483.059 392.666Z" fill="#EF6400"/>
<path d="M452.464 375.67L451.337 373.113C483.259 358.946 485.525 317.954 481.831 295.965C479.882 284.361 470.481 243.148 431.361 199.976C397.969 163.185 355.304 136.046 307.834 121.403C269.555 109.571 231.486 109.936 203.386 122.402C171.854 136.39 161.356 165.911 169.345 218.118C176.764 266.604 154.183 294.752 130.278 324.554L129.588 325.413C117.924 339.958 111.246 356.649 110.785 372.417C110.308 388.756 116.376 402.656 128.334 412.616C139.094 421.576 152.293 426.121 167.567 426.126C182.726 426.13 200.434 421.686 220.198 412.918C224.681 410.93 229.348 408.685 234.068 406.245C242.956 401.649 250.915 397.802 258.397 394.483C305.634 373.528 346.541 368.856 409.334 377.242C426.008 379.469 440.138 378.082 451.331 373.116L452.464 375.67ZM452.47 375.668C441.613 380.486 427.425 382.478 408.964 380.012C342.571 371.144 303.282 377.628 259.53 397.038C251.674 400.522 243.679 404.422 235.351 408.726C230.576 411.194 225.903 413.443 221.331 415.473C181.41 433.182 149.476 433.857 126.548 414.762C100.194 392.816 103.133 353.933 127.41 323.665C151.685 293.397 173.886 266.264 166.583 218.542C159.28 170.818 166.114 135.879 202.252 119.848C232.4 106.474 272.116 107.439 308.657 118.733C356.598 133.544 399.688 160.953 433.431 198.1C465.129 233.08 480.36 270.345 484.585 295.501C487.815 314.729 487.675 360.044 452.47 375.668Z" fill="#EF6400"/>
<path d="M421.876 358.671L420.748 356.115C447.089 344.425 448.945 310.518 445.89 292.326C444.27 282.689 436.46 248.455 403.946 212.571C376.174 181.974 340.691 159.405 301.212 147.226C269.421 137.401 237.815 137.697 214.499 148.04C188.447 159.597 179.782 184.045 186.403 227.308C192.617 267.914 173.739 291.45 153.751 316.365L153.177 317.083C132.852 342.422 132.385 372.711 152.065 389.101C169.952 403.997 194.834 404.058 228.132 389.286C231.859 387.633 235.739 385.765 239.666 383.736C247.081 379.903 253.721 376.692 259.965 373.923C299.415 356.422 333.573 352.518 385.995 359.52C399.804 361.364 411.495 360.22 420.743 356.117L421.876 358.671ZM421.881 358.669C412.832 362.684 401.01 364.344 385.627 362.289C330.299 354.899 297.558 360.302 261.098 376.477C254.55 379.382 247.888 382.631 240.948 386.219C236.969 388.275 233.075 390.149 229.265 391.84C195.997 406.599 169.386 407.161 150.279 391.249C128.318 372.96 130.767 340.556 150.996 315.333C171.227 290.11 189.728 267.499 183.642 227.732C177.556 187.961 183.251 158.846 213.366 145.486C238.489 134.341 271.585 135.146 302.037 144.557C341.988 156.899 377.897 179.74 406.016 210.697C432.43 239.847 445.121 270.899 448.644 291.864C451.335 307.887 451.219 345.649 421.881 358.669Z" fill="#EF6400"/>
<path d="M391.287 341.673L390.158 339.117C416.159 327.578 410.213 290.272 409.946 288.689C408.659 281.018 402.439 253.761 376.531 225.169C354.38 200.765 326.08 182.764 294.592 173.05C269.285 165.229 244.144 165.458 225.613 173.678C205.042 182.804 198.21 202.179 203.462 236.498C208.47 269.226 193.292 288.146 177.223 308.178L176.763 308.751C160.703 328.776 160.297 352.678 175.797 365.588C189.926 377.355 209.641 377.375 236.066 365.652C239.037 364.334 242.132 362.845 245.263 361.228C251.205 358.156 256.527 355.583 261.532 353.363C293.198 339.315 320.605 336.181 362.657 341.797C373.6 343.259 382.852 342.358 390.154 339.118L391.287 341.673ZM391.292 341.67C384.053 344.883 374.594 346.211 362.288 344.567C318.026 338.655 291.833 342.977 262.665 355.917C257.427 358.24 252.097 360.839 246.546 363.709C243.364 365.355 240.248 366.854 237.199 368.206C210.584 380.013 189.296 380.464 174.01 367.734C156.442 353.103 158.4 327.181 174.584 307.002C190.768 286.824 205.568 268.735 200.701 236.92C195.832 205.105 200.388 181.812 224.48 171.124C244.578 162.208 271.055 162.851 295.416 170.38C327.377 180.255 356.104 198.528 378.599 223.293C399.73 246.613 409.884 271.456 412.702 288.227C414.855 301.046 414.762 331.255 391.292 341.67Z" fill="#EF6400"/>
</g>
</svg>
